<?xml version="1.0" encoding="UTF-8"?>
<svg version="1.1" xmlns="http://www.w3.org/2000/svg" width="1000" height="376">
<path d="M0 0 C0.99 0.33 1.98 0.66 3 1 C3.70381157 2.98723268 4.3711811 4.98777953 5 7 C5.99 7.495 5.99 7.495 7 8 C8.27436784 10.21069914 9.46458322 12.41791071 10.625 14.6875 C13.3097221 19.8412076 16.07327673 24.91695494 19 29.9375 C22.28516908 35.62535156 25.24609608 41.42022257 28.13842773 47.31567383 C29.96994614 51.02250094 31.88648245 54.60412279 34.0625 58.125 C36.52585088 62.12624397 38.77872092 66.20361757 40.9375 70.375 C41.54464844 71.53773437 42.15179688 72.70046875 42.77734375 73.8984375 C44 77 44 77 43.9375 79.1796875 C42.69144673 81.59910761 41.13597146 82.99523573 39.0625 84.75 C38.35222656 85.36359375 37.64195312 85.9771875 36.91015625 86.609375 C35 88 35 88 33 88 C33 88.66 33 89.32 33 90 C28.52941176 94 28.52941176 94 26 94 C26 94.66 26 95.32 26 96 C23.8828125 97.9453125 23.8828125 97.9453125 21.125 100.125 C19.76761719 101.21167969 19.76761719 101.21167969 18.3828125 102.3203125 C16 104 16 104 14 104 C13.505 105.485 13.505 105.485 13 107 C9.55555556 110 9.55555556 110 7 110 C7 110.66 7 111.32 7 112 C5.00715862 113.3440093 3.00580329 114.67541292 1 116 C-0.67221293 117.66110188 -2.33824248 119.3284386 -4 121 C-5.87363614 122.63003753 -7.76961764 124.23476049 -9.6875 125.8125 C-10.64011719 126.60269531 -11.59273438 127.39289063 -12.57421875 128.20703125 C-15 130 -15 130 -17 130 C-17 130.66 -17 131.32 -17 132 C-19.046875 133.875 -19.046875 133.875 -21.75 136 C-22.63171875 136.70125 -23.5134375 137.4025 -24.421875 138.125 C-26.57798064 139.69307683 -28.57748621 140.91326484 -31 142 C-31 142.66 -31 143.32 -31 144 C-35.47058824 148 -35.47058824 148 -38 148 C-38 148.66 -38 149.32 -38 150 C-39.98600337 151.3540932 -41.98817543 152.68457624 -44 154 C-44.7425 154.7425 -45.485 155.485 -46.25 156.25 C-46.8275 156.8275 -47.405 157.405 -48 158 C-48.66 158 -49.32 158 -50 158 C-50 158.66 -50 159.32 -50 160 C-52.475 160.99 -52.475 160.99 -55 162 C-55 162.66 -55 163.32 -55 164 C-59.47058824 168 -59.47058824 168 -62 168 C-62 168.66 -62 169.32 -62 170 C-66.47058824 174 -66.47058824 174 -69 174 C-69 174.66 -69 175.32 -69 176 C-71.475 176.99 -71.475 176.99 -74 178 C-74 178.66 -74 179.32 -74 180 C-76 181.625 -76 181.625 -78 183 C-71.83020273 183.42411359 -65.6690507 183.73027875 -59.48803711 183.93383789 C-57.3927836 184.01873053 -55.2985196 184.13431797 -53.20678711 184.2824707 C-41.43489583 185.40144251 -41.43489583 185.40144251 -30.7807312 181.35812378 C-26.86287781 177.35352515 -23.93786616 172.83433618 -21.17105103 167.98536682 C-19.66170873 165.42647054 -17.86343185 163.19390954 -15.9375 160.9375 C-12.61582275 156.83057269 -9.46095266 152.61472081 -6.3125 148.375 C-2.09255039 142.69634393 2.25915379 137.15424791 6.75 131.6875 C12.31118551 124.91525922 17.57226468 118.009767 22.5234375 110.7734375 C23.64052323 109.15269461 24.81336965 107.57054018 26 106 C26.66 106 27.32 106 28 106 C28.22945313 105.29746094 28.45890625 104.59492187 28.6953125 103.87109375 C30.25196117 100.44553454 32.41672963 97.8612014 34.875 95.0625 C38.23017338 91.20454842 41.24276889 87.30256297 44 83 C45.84008789 83.24365234 45.84008789 83.24365234 48 84 C49.34936523 85.76806641 49.34936523 85.76806641 50.55859375 88.1015625 C51.02048096 88.97312988 51.48236816 89.84469727 51.95825195 90.74267578 C52.69047974 92.16942627 52.69047974 92.16942627 53.4375 93.625 C54.50082606 95.63635769 55.56599205 97.64674355 56.6328125 99.65625 C57.18356445 100.70039062 57.73431641 101.74453125 58.30175781 102.8203125 C61.05251649 107.97066918 63.92891264 113.04816146 66.8125 118.125 C67.36228516 119.09622803 67.91207031 120.06745605 68.47851562 121.06811523 C71.25676243 125.96675849 74.06894318 130.84128176 76.9375 135.6875 C79.05956808 139.28983996 80.9833604 142.92816337 82.8125 146.6875 C85.30346633 151.78296196 88.09358169 156.63539846 91 161.5 C93.77039832 166.1408228 96.46172425 170.7529995 98.8125 175.625 C102.11592175 182.42561964 105.88205698 188.95018346 109.61938477 195.51831055 C114.04482722 203.29815249 118.41140228 211.10905966 122.75 218.9375 C126.7528009 226.15609671 130.75729625 233.37318598 134.8125 240.5625 C140.59257641 250.81514305 146.34276877 261.08477032 151.94921875 271.43359375 C157.03319277 280.81669055 162.18249026 290.13310073 167.63500977 299.30761719 C170.28701621 303.77223108 172.84103095 308.27350741 175.30078125 312.84765625 C177.71650594 317.32924205 180.1717598 321.78886714 182.625 326.25 C183.09284912 327.10247314 183.56069824 327.95494629 184.04272461 328.83325195 C184.49526611 329.65656006 184.94780762 330.47986816 185.4140625 331.328125 C185.84879883 332.12412109 186.28353516 332.92011719 186.73144531 333.74023438 C187.54336763 335.18656867 188.38422715 336.61726345 189.26074219 338.02539062 C190.25862303 339.63399168 191.14003756 341.31363464 192 343 C191.67 344.32 191.34 345.64 191 347 C187.37 345.02 183.74 343.04 180 341 C180 340.34 180 339.68 180 339 C179.34644531 338.77054687 178.69289063 338.54109375 178.01953125 338.3046875 C174.02708719 336.57962111 170.40691306 334.36907859 166.6875 332.125 C161.22410613 328.83426946 155.73856481 325.78822923 150 323 C150 322.34 150 321.68 150 321 C149.16855469 320.76410156 148.33710938 320.52820313 147.48046875 320.28515625 C143.40233846 318.77931465 139.98336974 316.73587838 136.3125 314.4375 C131.36510115 311.30318681 131.36510115 311.30318681 126 309 C126 308.34 126 307.68 126 307 C125.01580078 306.64228516 125.01580078 306.64228516 124.01171875 306.27734375 C120.12347891 304.62824592 116.49631858 302.62209852 112.8125 300.5625 C112.0280249 300.12583008 111.2435498 299.68916016 110.43530273 299.23925781 C103.94268874 295.59423615 97.59198108 291.740028 91.25878906 287.82641602 C86.57800683 284.94068607 81.85024739 282.2187391 76.99609375 279.6328125 C72.99621234 277.45295536 69.06281059 275.16464728 65.125 272.875 C58.22618552 268.86393337 51.30934769 264.88681728 44.375 260.9375 C35.813689 256.05712014 27.30701456 251.09017169 18.82373047 246.07568359 C16.22143908 244.54078455 13.61108314 243.01988422 11 241.5 C6.40870506 238.82588092 1.82788035 236.13447915 -2.75 233.4375 C-10.96726079 228.59655856 -19.20597828 223.79267677 -27.45019531 218.99780273 C-31.99917879 216.34879171 -36.53433797 213.68326048 -41.03515625 210.953125 C-45.32886004 208.36515664 -49.70652996 205.96607242 -54.1171875 203.58447266 C-60.40858977 200.12654577 -66.56223397 196.42361354 -72.7421875 192.77148438 C-73.76570313 192.17013672 -74.78921875 191.56878906 -75.84375 190.94921875 C-77.22336914 190.13457153 -77.22336914 190.13457153 -78.63085938 189.3034668 C-81.03422329 187.88845638 -81.03422329 187.88845638 -84 187 C-83.45015726 181.04991604 -81.00939151 176.20664101 -78.5 170.875 C-77.5854569 168.89996206 -76.67140466 166.92469675 -75.7578125 164.94921875 C-75.29536133 163.9545459 -74.83291016 162.95987305 -74.35644531 161.93505859 C-72.32366291 157.53655067 -70.35061108 153.11189643 -68.375 148.6875 C-65.62542213 142.5524856 -62.81866002 136.44929278 -59.9375 130.375 C-56.15870382 122.40500568 -52.56609639 114.358966 -49.00878906 106.28808594 C-44.62843778 96.35278773 -40.23572066 86.42600736 -35.64453125 76.5859375 C-34.30420079 73.66331669 -32.99458319 70.7316838 -31.69921875 67.7890625 C-31.29501709 66.87560059 -30.89081543 65.96213867 -30.47436523 65.02099609 C-29.66778448 63.19553416 -28.86637917 61.36777532 -28.07055664 59.53759766 C-27.51742798 58.28922119 -27.51742798 58.28922119 -26.953125 57.015625 C-26.62473633 56.26571289 -26.29634766 55.51580078 -25.95800781 54.74316406 C-25 53 -25 53 -23 52 C-22.63729043 50.3394788 -22.30954489 48.67124829 -22 47 C-21.3060883 45.18317899 -20.56088296 43.3854739 -19.77734375 41.60546875 C-19.32488281 40.57462158 -18.87242188 39.54377441 -18.40625 38.48168945 C-17.9215625 37.39460693 -17.436875 36.30752441 -16.9375 35.1875 C-16.19693359 33.51530396 -16.19693359 33.51530396 -15.44140625 31.80932617 C-11.54295762 23.07127172 -7.38952261 14.49952373 -3 6 C-1.99726621 4.00136923 -0.99635314 2.00181928 0 0 Z " fill="#0142FA" transform="translate(92,9)"/>
<path d="M0 0 C2.72665521 0.41797899 5.3944162 0.91394321 8.09375 1.47265625 C8.97027222 1.65135757 9.84679443 1.8300589 10.74987793 2.01417542 C23.69966974 4.70818425 36.55191463 7.8478337 49.41192627 10.93664551 C52.19172843 11.60342101 54.97236738 12.26666616 57.7530365 12.92981529 C72.8573174 16.53244784 87.94742413 20.18624591 103 24 C103.97981881 29.91259411 104.28331896 35.75729714 104.5 41.7421875 C104.54060547 42.78279327 104.58121094 43.82339905 104.62304688 44.89553833 C104.75209245 48.22190522 104.87616685 51.5484354 105 54.875 C105.08299695 57.0403775 105.16632755 59.20574224 105.25 61.37109375 C105.41746658 65.71503392 105.58333912 70.05903056 105.74804688 74.40307617 C106.00265425 81.09579962 106.26494836 87.78820103 106.53125 94.48046875 C106.59070801 95.98617935 106.59070801 95.98617935 106.65136719 97.52230835 C106.90338922 103.82901415 107.18935404 110.13342348 107.5 116.4375 C108.0382107 127.48289291 108.46107756 138.53168989 108.87060547 149.58251953 C109.0028323 153.07480486 109.14320898 156.56669093 109.28515625 160.05859375 C109.77772541 172.37965218 110.15653283 184.66869128 110 197 C107 196 107 196 105 193 C105 192.01 105 191.02 105 190 C104.34 190 103.68 190 103 190 C102.20335937 188.38931641 102.20335937 188.38931641 101.390625 186.74609375 C100.67719255 185.30984158 99.96364471 183.87364672 99.25 182.4375 C98.90195313 181.73302734 98.55390625 181.02855469 98.1953125 180.30273438 C96.28079885 176.45598009 94.29280474 172.68208332 92.13476562 168.96411133 C89.58218893 164.54597891 87.11578865 160.07815474 84.625 155.625 C83.37635042 153.39320212 82.12765103 151.16143211 80.87890625 148.9296875 C80.23969238 147.78725586 79.60047852 146.64482422 78.94189453 145.46777344 C77.0353213 142.06307566 75.1256185 138.66015381 73.21484375 135.2578125 C62.62574256 116.39772686 62.62574256 116.39772686 58.625 109.0625 C58.10164063 108.10472656 57.57828125 107.14695312 57.0390625 106.16015625 C56 104 56 104 56 102 C55.34 102 54.68 102 54 102 C53.52691406 101.030625 53.05382812 100.06125 52.56640625 99.0625 C46.85703617 87.45373984 40.75902363 76.09725957 34 65.0625 C30.89434437 59.96096596 28.16032863 54.67645972 25.39111328 49.38793945 C22.63655891 44.14710136 19.72119069 39.02622876 16.70703125 33.9296875 C14.77071023 30.60648209 12.90093818 27.25309515 11.0625 23.875 C10.47597656 22.79992187 9.88945312 21.72484375 9.28515625 20.6171875 C8 18 8 18 8 16 C7.34 15.67 6.68 15.34 6 15 C4.7223892 12.66156757 3.52838117 10.3356889 2.375 7.9375 C1.88773438 6.94266602 1.88773438 6.94266602 1.390625 5.92773438 C0.58834885 4.28778753 -0.2065288 2.64422508 -1 1 C-0.67 0.67 -0.34 0.34 0 0 Z " fill="#3671E8" transform="translate(128,58)"/>
<path d="M0 0 C0.99 0.33 1.98 0.66 3 1 C3.70381157 2.98723268 4.3711811 4.98777953 5 7 C5.99 7.495 5.99 7.495 7 8 C8.27436784 10.21069914 9.46458322 12.41791071 10.625 14.6875 C13.3097221 19.8412076 16.07327673 24.91695494 19 29.9375 C22.28516908 35.62535156 25.24609608 41.42022257 28.13842773 47.31567383 C29.96994614 51.02250094 31.88648245 54.60412279 34.0625 58.125 C36.52585088 62.12624397 38.77872092 66.20361757 40.9375 70.375 C41.54464844 71.53773437 42.15179688 72.70046875 42.77734375 73.8984375 C44 77 44 77 43.9375 79.1796875 C42.69144673 81.59910761 41.13597146 82.99523573 39.0625 84.75 C38.35222656 85.36359375 37.64195312 85.9771875 36.91015625 86.609375 C35 88 35 88 33 88 C33 88.66 33 89.32 33 90 C28.52941176 94 28.52941176 94 26 94 C26 94.66 26 95.32 26 96 C23.8828125 97.9453125 23.8828125 97.9453125 21.125 100.125 C19.76761719 101.21167969 19.76761719 101.21167969 18.3828125 102.3203125 C16 104 16 104 14 104 C13.505 105.485 13.505 105.485 13 107 C9.55555556 110 9.55555556 110 7 110 C7 110.66 7 111.32 7 112 C5.00715862 113.3440093 3.00580329 114.67541292 1 116 C-0.67221293 117.66110188 -2.33824248 119.3284386 -4 121 C-5.87363614 122.63003753 -7.76961764 124.23476049 -9.6875 125.8125 C-10.64011719 126.60269531 -11.59273438 127.39289063 -12.57421875 128.20703125 C-15 130 -15 130 -17 130 C-17 130.66 -17 131.32 -17 132 C-19.046875 133.875 -19.046875 133.875 -21.75 136 C-22.63171875 136.70125 -23.5134375 137.4025 -24.421875 138.125 C-26.57798064 139.69307683 -28.57748621 140.91326484 -31 142 C-31 142.66 -31 143.32 -31 144 C-35.47058824 148 -35.47058824 148 -38 148 C-38 148.66 -38 149.32 -38 150 C-39.98600337 151.3540932 -41.98817543 152.68457624 -44 154 C-44.7425 154.7425 -45.485 155.485 -46.25 156.25 C-46.8275 156.8275 -47.405 157.405 -48 158 C-48.66 158 -49.32 158 -50 158 C-50 158.66 -50 159.32 -50 160 C-52.475 160.99 -52.475 160.99 -55 162 C-55 162.66 -55 163.32 -55 164 C-59.47058824 168 -59.47058824 168 -62 168 C-62 168.66 -62 169.32 -62 170 C-66.47058824 174 -66.47058824 174 -69 174 C-69 174.66 -69 175.32 -69 176 C-71.475 176.99 -71.475 176.99 -74 178 C-74 178.66 -74 179.32 -74 180 C-76.31 180.33 -78.62 180.66 -81 181 C-80.47729526 175.84482452 -79.28487462 171.95100704 -77 167.3125 C-76.36166591 165.99427057 -75.72503671 164.67521462 -75.08984375 163.35546875 C-74.75065918 162.65470215 -74.41147461 161.95393555 -74.06201172 161.23193359 C-72.15719047 157.22874374 -70.36735415 153.17397881 -68.5625 149.125 C-65.75145447 142.84348376 -62.88844665 136.59200055 -59.9375 130.375 C-56.15846269 122.40512517 -52.56609274 114.35895772 -49.00878906 106.28808594 C-44.62843778 96.35278773 -40.23572066 86.42600736 -35.64453125 76.5859375 C-34.30420079 73.66331669 -32.99458319 70.7316838 -31.69921875 67.7890625 C-31.29501709 66.87560059 -30.89081543 65.96213867 -30.47436523 65.02099609 C-29.66778448 63.19553416 -28.86637917 61.36777532 -28.07055664 59.53759766 C-27.51742798 58.28922119 -27.51742798 58.28922119 -26.953125 57.015625 C-26.62473633 56.26571289 -26.29634766 55.51580078 -25.95800781 54.74316406 C-25 53 -25 53 -23 52 C-22.63729043 50.3394788 -22.30954489 48.67124829 -22 47 C-21.3060883 45.18317899 -20.56088296 43.3854739 -19.77734375 41.60546875 C-19.32488281 40.57462158 -18.87242188 39.54377441 -18.40625 38.48168945 C-17.9215625 37.39460693 -17.436875 36.30752441 -16.9375 35.1875 C-16.19693359 33.51530396 -16.19693359 33.51530396 -15.44140625 31.80932617 C-11.54295762 23.07127172 -7.38952261 14.49952373 -3 6 C-1.99726621 4.00136923 -0.99635314 2.00181928 0 0 Z " fill="#3671E7" transform="translate(92,9)"/>
<path d="M0 0 C5.94 0 11.88 0 18 0 C18.33 0.66 18.66 1.32 19 2 C19.99 1.34 20.98 0.68 22 0 C23.9172821 -0.24050903 23.9172821 -0.24050903 26.10424805 -0.22705078 C26.92487228 -0.22689972 27.74549652 -0.22674866 28.59098816 -0.22659302 C29.9129998 -0.21110916 29.9129998 -0.21110916 31.26171875 -0.1953125 C32.62040825 -0.19106766 32.62040825 -0.19106766 34.00654602 -0.18673706 C36.90033158 -0.17553964 39.79380794 -0.15043589 42.6875 -0.125 C44.64908407 -0.11496963 46.610673 -0.10584388 48.57226562 -0.09765625 C53.3816296 -0.07560173 58.19076237 -0.04107489 63 0 C63.495 0.99 63.495 0.99 64 2 C64.57347168 1.67620361 65.14694336 1.35240723 65.73779297 1.01879883 C69.44062896 -0.6487961 73.11821812 -0.33962522 77.125 -0.3125 C77.97868164 -0.30686035 78.83236328 -0.3012207 79.71191406 -0.29541016 C88.63516691 -0.12361288 95.56643771 1.10834252 102.4296875 7.109375 C107.25207624 12.91543508 108.61862385 17.54539464 108.74609375 24.921875 C108.77481064 25.78294861 108.80352753 26.64402222 108.83311462 27.53118896 C109.15367797 38.4333824 109.10819844 49.34445533 109.0625 60.25 C109.05746677 62.37499893 109.05290713 64.49999903 109.04882812 66.625 C109.03798579 71.75002993 109.02082551 76.87500132 109 82 C105.13036218 84.13499083 102.25014823 84.23808459 97.8125 84.1875 C96.56082031 84.18105469 95.30914063 84.17460937 94.01953125 84.16796875 C91 84 91 84 90 83 C89.89748344 81.12427458 89.86428378 79.24472575 89.8581543 77.36621094 C89.84760262 75.55863312 89.84760262 75.55863312 89.83683777 73.71453857 C89.83267349 72.40108459 89.82850922 71.08763062 89.82421875 69.734375 C89.81379925 68.38013933 89.80237751 67.02591102 89.78999329 65.67169189 C89.73748126 59.9092552 89.68957504 54.14694795 89.67407227 48.38427734 C89.66397439 44.86208585 89.63460066 41.34050146 89.59275246 37.81855011 C89.57448754 35.82619511 89.57708891 33.83368415 89.58000183 31.84124756 C89.56351089 30.62358704 89.54701996 29.40592651 89.5300293 28.15136719 C89.52416306 27.081828 89.51829681 26.01228882 89.51225281 24.91033936 C88.87376336 21.28279269 87.54591949 19.61714381 85 17 C80.30376834 14.74930242 75.79186656 14.79216379 70.6875 14.9375 C64.69162806 15.03046926 58.94881949 14.86528283 53 14 C53 14.66 53 15.32 53 16 C53.62648438 16.07476562 54.25296875 16.14953125 54.8984375 16.2265625 C56.12433594 16.42378906 56.12433594 16.42378906 57.375 16.625 C58.18710937 16.74101562 58.99921875 16.85703125 59.8359375 16.9765625 C62 18 62 18 63.11808777 20.69734192 C63.97725413 23.91481938 64.25921836 26.54761502 64.2746582 29.8659668 C64.28419022 30.9970134 64.29372223 32.12806 64.30354309 33.29338074 C64.30263168 34.49980728 64.30172028 35.70623383 64.30078125 36.94921875 C64.30506638 38.1987886 64.3093515 39.44835846 64.31376648 40.73579407 C64.32096338 44.04397732 64.31789444 47.35197765 64.31219482 50.66015625 C64.31260171 53.36316042 64.3314908 56.06591666 64.3500185 58.76884747 C64.36827696 61.9956341 64.36457153 65.22238973 64.36328125 68.44921875 C64.372491 69.66171799 64.38170074 70.87421722 64.39118958 72.12345886 C64.38496078 73.24504898 64.37873199 74.3666391 64.37231445 75.5222168 C64.37294388 76.51005661 64.3735733 77.49789642 64.3742218 78.51567078 C64 81 64 81 62.69792175 82.82185364 C59.86566561 84.78708688 56.68947307 84.3496834 53.375 84.25 C52.33472656 84.24226563 52.33472656 84.24226563 51.2734375 84.234375 C46.15438988 84.15438988 46.15438988 84.15438988 45 83 C44.897541 81.16020305 44.86428622 79.31651449 44.8581543 77.47387695 C44.85111984 76.29207352 44.84408539 75.11027008 44.83683777 73.89265442 C44.83267349 72.60421127 44.82850922 71.31576813 44.82421875 69.98828125 C44.80696125 67.97729427 44.78968016 65.96630717 44.77101612 63.95533276 C44.725392 58.98107555 44.68772468 54.00692547 44.67407227 49.0324707 C44.66396043 45.57510887 44.63454988 42.11836319 44.59275246 38.66124535 C44.57452202 36.70827011 44.5770861 34.75513639 44.58000183 32.80207825 C44.57552793 24.04457859 44.57552793 24.04457859 40 17 C33.9439629 13.81116452 25.57548932 14.76611185 18.9375 14.875 C17.88111328 14.88402344 16.82472656 14.89304688 15.73632812 14.90234375 C13.15745224 14.92568199 10.57869476 14.96154391 8 15 C12.95 16.98 12.95 16.98 18 19 C18.33 40.12 18.66 61.24 19 83 C14.63796228 83.72700629 11.03412938 84.13582598 6.6875 84.125 C5.63949219 84.12757813 4.59148438 84.13015625 3.51171875 84.1328125 C1 84 1 84 0 83 C-0.09507821 80.41360962 -0.12556376 77.8540144 -0.11352539 75.26733398 C-0.11367142 74.4576416 -0.11381744 73.64794922 -0.1139679 72.8137207 C-0.11326854 70.12448492 -0.1054751 67.43531751 -0.09765625 64.74609375 C-0.09579215 62.88664284 -0.09436821 61.02719144 -0.09336853 59.16773987 C-0.08954271 54.26370904 -0.07971188 49.35970764 -0.06866455 44.45568848 C-0.05845181 39.45548908 -0.05387121 34.45528494 -0.04882812 29.45507812 C-0.03808967 19.63670372 -0.02049235 9.8183589 0 0 Z " fill="#F5F5F6" transform="translate(872,164)"/>
<path d="M0 0 C0.88490616 -0.00807175 1.76981232 -0.01614349 2.68153381 -0.02445984 C4.56379221 -0.03832681 6.44607603 -0.04903721 8.32836914 -0.05688477 C11.17970371 -0.07396151 14.02983719 -0.11780579 16.88085938 -0.16210938 C27.89049486 -0.25704407 37.4777365 -0.24036425 46.28515625 7.23828125 C46.28515625 7.89828125 46.28515625 8.55828125 46.28515625 9.23828125 C46.94515625 9.23828125 47.60515625 9.23828125 48.28515625 9.23828125 C55.01270797 18.88110538 54.58574162 30.95849393 54.48046875 42.3203125 C54.47763885 43.50050461 54.47480896 44.68069672 54.47189331 45.89665222 C54.46082247 49.61480454 54.43574323 53.33270346 54.41015625 57.05078125 C54.4001095 59.59309545 54.39098664 62.13541347 54.3828125 64.67773438 C54.36092625 70.86466776 54.32758217 77.05145639 54.28515625 83.23828125 C50.32349106 84.08284677 46.65621742 84.40264236 42.59765625 84.42578125 C41.45941406 84.43996094 40.32117188 84.45414062 39.1484375 84.46875 C36.28515625 84.23828125 36.28515625 84.23828125 34.28515625 82.23828125 C33.38152344 82.55796875 32.47789062 82.87765625 31.546875 83.20703125 C20.69501382 86.28186155 5.21459155 86.49384928 -5.02734375 81.55078125 C-9.12180891 79.12419929 -12.85025041 75.99467941 -14.31834412 71.31427002 C-14.97187334 67.89252832 -14.83595778 64.44293076 -14.8125 60.97265625 C-14.81149292 60.26898926 -14.81048584 59.56532227 -14.80944824 58.84033203 C-14.8042338 56.22296509 -14.79027256 53.60562146 -14.77734375 50.98828125 C-14.75671875 45.13078125 -14.73609375 39.27328125 -14.71484375 33.23828125 C1.78515625 33.23828125 18.28515625 33.23828125 35.28515625 33.23828125 C35.09867436 24.64908832 35.09867436 24.64908832 31.28515625 18.23828125 C23.06265655 14.56609692 15.02858233 14.8909659 6.22265625 15.05078125 C4.7701962 15.06585869 3.31772098 15.07954167 1.86523438 15.09179688 C-1.66177832 15.12455264 -5.1882116 15.17616461 -8.71484375 15.23828125 C-9.42945639 10.50822613 -9.90648922 6.02941811 -9.71484375 1.23828125 C-7.59968935 -0.87687315 -2.92531163 0.02511828 0 0 Z M-7.71484375 48.23828125 C-7.38484375 48.89828125 -7.05484375 49.55828125 -6.71484375 50.23828125 C-5.24574978 50.63214793 -3.76403362 50.97965624 -2.27734375 51.30078125 C0.203125 52.06640625 0.203125 52.06640625 2.28515625 53.23828125 C3.26800722 55.49750429 3.52960453 57.50658377 3.8359375 59.9453125 C4.58147957 63.75081854 6.54404329 65.56402471 9.28515625 68.23828125 C12.34435013 69.25801254 14.4093365 69.35361727 17.609375 69.3359375 C19.15141602 69.33110352 19.15141602 69.33110352 20.72460938 69.32617188 C21.79646484 69.31779297 22.86832031 69.30941406 23.97265625 69.30078125 C25.05611328 69.29626953 26.13957031 69.29175781 27.25585938 69.28710938 C29.93231519 69.27531882 32.60874264 69.25738333 35.28515625 69.23828125 C35.28515625 62.30828125 35.28515625 55.37828125 35.28515625 48.23828125 C21.09515625 48.23828125 6.90515625 48.23828125 -7.71484375 48.23828125 Z " fill="#EFF0F3" transform="translate(542.71484375,163.76171875)"/>
<path d="M0 0 C1.58206057 0.00667536 3.16410534 0.0186375 4.74609375 0.03515625 C5.55240234 0.03966797 6.35871094 0.04417969 7.18945312 0.04882812 C9.18753131 0.06065107 11.18557158 0.07858711 13.18359375 0.09765625 C13.51359375 0.75765625 13.84359375 1.41765625 14.18359375 2.09765625 C14.68109131 1.77458496 15.17858887 1.45151367 15.69116211 1.11865234 C19.12122203 -0.28643244 22.41238268 -0.22718766 26.0625 -0.23828125 C26.82980942 -0.24493805 27.59711884 -0.25159485 28.38768005 -0.25845337 C30.01241671 -0.26856671 31.63719479 -0.2732708 33.26196289 -0.27294922 C35.71377921 -0.27728658 38.16374065 -0.31351654 40.61523438 -0.3515625 C50.60120172 -0.42539038 59.68241608 -0.12381484 67.9375 6.2109375 C68.53433594 6.93667969 69.13117188 7.66242188 69.74609375 8.41015625 C70.67615234 9.48716797 70.67615234 9.48716797 71.625 10.5859375 C76.21028917 17.97526316 75.46139846 26.11907338 75.4140625 34.52734375 C75.41286894 35.92741859 75.41241791 37.32749425 75.41267395 38.72756958 C75.41111671 41.64753297 75.40288061 44.56737244 75.3894043 47.48730469 C75.37232071 51.23679324 75.36859305 54.98614716 75.36934948 58.73567009 C75.36907832 61.61975396 75.36360732 64.50380819 75.35634804 67.38788223 C75.35316019 68.77143251 75.35119369 70.15498614 75.35045433 71.53853989 C75.34829737 73.46304275 75.33876983 75.38753317 75.32885742 77.31201172 C75.32504562 78.40786591 75.32123383 79.50372009 75.31730652 80.63278198 C75.18359375 83.09765625 75.18359375 83.09765625 74.18359375 84.09765625 C71.48704521 84.17085246 68.81667917 84.19008162 66.12109375 84.16015625 C65.36248047 84.15564453 64.60386719 84.15113281 63.82226562 84.14648438 C61.94267504 84.13466305 60.06312476 84.11672703 58.18359375 84.09765625 C55.94018603 77.83616374 55.97050213 72.10840732 56.09375 65.50390625 C56.1141665 63.23437709 56.13434144 60.96484576 56.15429688 58.6953125 C56.19780577 55.14036536 56.2462766 51.58556856 56.30004883 48.03076172 C56.34842586 44.58431515 56.37822694 41.13806966 56.40625 37.69140625 C56.42800797 36.63393188 56.44976593 35.57645752 56.47218323 34.48693848 C56.5169858 27.79579042 56.11593634 22.48112847 51.55859375 17.22265625 C45.55518248 14.37893512 37.96164407 14.95450326 31.4296875 15 C30.64336441 15.00141495 29.85704132 15.0028299 29.04689026 15.00428772 C26.5715836 15.00981953 24.09637238 15.0223585 21.62109375 15.03515625 C19.92773569 15.04018009 18.2343762 15.04474144 16.54101562 15.04882812 C12.42183905 15.05976647 8.3027325 15.07698263 4.18359375 15.09765625 C5.64325434 16.55731684 7.31612008 16.95556269 9.24609375 17.66015625 C9.97957031 17.92957031 10.71304688 18.19898438 11.46875 18.4765625 C12.03464844 18.68152344 12.60054687 18.88648438 13.18359375 19.09765625 C13.33754979 26.85149013 13.48572996 34.60541103 13.62655735 42.35949326 C13.69213165 45.96010121 13.75968757 49.56064915 13.83178711 53.16113281 C13.90130647 56.6364221 13.96560097 60.11177253 14.02628899 63.58722687 C14.06204672 65.55706063 14.10320099 67.52679403 14.14442444 69.496521 C14.16452072 70.69746399 14.184617 71.89840698 14.20532227 73.13574219 C14.23530052 74.72125885 14.23530052 74.72125885 14.2658844 76.33880615 C14.19300622 78.78209688 13.89622883 80.77188262 13.18359375 83.09765625 C9.59900415 84.2128619 6.23469078 84.23102937 2.49609375 84.22265625 C1.33722656 84.22523438 0.17835938 84.2278125 -1.015625 84.23046875 C-3.81640625 84.09765625 -3.81640625 84.09765625 -4.81640625 83.09765625 C-4.91678356 80.54714151 -4.95258112 78.02368446 -4.94580078 75.47265625 C-4.9475531 74.67432373 -4.94930542 73.87599121 -4.95111084 73.0534668 C-4.95552992 70.40150815 -4.95259117 67.74961563 -4.94921875 65.09765625 C-4.94989177 63.2630207 -4.95086178 61.42838524 -4.95211792 59.59375 C-4.95359497 55.74348097 -4.95144011 51.89323509 -4.94677734 48.04296875 C-4.94108005 43.09609128 -4.94435902 38.14926806 -4.95034981 33.20239258 C-4.95395523 29.4124307 -4.95281692 25.62248179 -4.95022202 21.83251953 C-4.94955269 20.0079752 -4.95038135 18.1834297 -4.95270157 16.35888672 C-4.95522779 13.81344464 -4.95138795 11.26809166 -4.94580078 8.72265625 C-4.94883713 7.58026489 -4.94883713 7.58026489 -4.95193481 6.41479492 C-4.92623052 0.12605503 -4.92623052 0.12605503 0 0 Z " fill="#F4F5F7" transform="translate(624.81640625,163.90234375)"/>
<path d="M0 0 C5.94 0 11.88 0 18 0 C18 4.62 18 9.24 18 14 C14.77390955 15.07536348 12.37822416 15.14375422 9 15 C8.34 14.67 7.68 14.34 7 14 C7 14.66 7 15.32 7 16 C7.93972656 16.16435547 7.93972656 16.16435547 8.8984375 16.33203125 C9.71570313 16.49058594 10.53296875 16.64914063 11.375 16.8125 C12.18710937 16.96332031 12.99921875 17.11414063 13.8359375 17.26953125 C16 18 16 18 18 21 C18.14774356 23.52253667 18.18444038 25.93099191 18.125 28.44921875 C18.11742676 29.18066605 18.10985352 29.91211334 18.10205078 30.66572571 C18.06946464 33.78906994 18.01355206 36.91188643 17.95898438 40.03491211 C17.92249175 42.31882233 17.89849515 44.60264342 17.875 46.88671875 C17.85840332 47.5797258 17.84180664 48.27273285 17.82470703 48.98674011 C17.76694427 54.84847138 18.17886943 60.78049712 22 65.4375 C25.80623294 68.41111949 29.18806261 68.21333852 33.8515625 68.31640625 C34.53758545 68.33505737 35.2236084 68.3537085 35.93041992 68.3729248 C38.49514789 68.44126661 41.0600896 68.50138719 43.625 68.5625 C49.35875 68.706875 55.0925 68.85125 61 69 C61 46.23 61 23.46 61 0 C66.94 0 72.88 0 79 0 C80.125 9.5 80.125 9.5 79 14 C75.37 14 71.74 14 68 14 C68 14.66 68 15.32 68 16 C72.95 16.99 72.95 16.99 78 18 C80.00770278 25.4785192 80.26293244 32.40905054 80.1953125 40.12890625 C80.1924826 41.35915024 80.18965271 42.58939423 80.18673706 43.85691833 C80.17560547 47.7588808 80.15051358 51.66060774 80.125 55.5625 C80.11382534 58.21939768 80.1058369 60.87629315 80.09765625 63.53320312 C80.07568912 70.02221481 80.04228177 76.51109057 80 83 C76.03833481 83.84456552 72.37106117 84.16436111 68.3125 84.1875 C67.17425781 84.20167969 66.03601563 84.21585937 64.86328125 84.23046875 C62 84 62 84 60 82 C59.23671387 82.48678223 59.23671387 82.48678223 58.45800781 82.98339844 C55.11585403 84.36567182 52.28482082 84.2594065 48.671875 84.265625 C47.9640387 84.26753845 47.25620239 84.2694519 46.5269165 84.27142334 C45.03079879 84.27278176 43.53466915 84.26910925 42.03857422 84.26074219 C39.77153339 84.25010107 37.5052965 84.26061557 35.23828125 84.2734375 C33.77864411 84.2721146 32.31900746 84.26954952 30.859375 84.265625 C29.54420898 84.26336914 28.22904297 84.26111328 26.87402344 84.25878906 C19.46666342 83.7639692 13.49527052 81.47960921 7 78 C7 77.34 7 76.68 7 76 C6.34 76 5.68 76 5 76 C-2.46991527 63.22885454 -1.16326719 49.11552462 -1.13037109 34.67919922 C-1.12499678 31.87331779 -1.130354 29.06759543 -1.13671875 26.26171875 C-1.13964698 17.44598693 -1.02874849 8.76885614 0 0 Z " fill="#EEEFF2" transform="translate(769,164)"/>
<path d="M0 0 C1.0442086 0.00303635 1.0442086 0.00303635 2.10951233 0.00613403 C2.83956985 0.00438171 3.56962738 0.00262939 4.32180786 0.00082397 C6.74650924 -0.00359443 9.17113828 -0.00065661 11.59584045 0.00271606 C13.27353428 0.00204302 14.95122802 0.00107299 16.62892151 -0.00018311 C20.14964219 -0.00166006 23.67033755 0.0004944 27.1910553 0.00515747 C31.71419541 0.01085476 36.23727619 0.00757574 40.76041412 0.00158501 C44.22611441 -0.00202067 47.69180052 -0.00088199 51.15750122 0.0017128 C52.8257447 0.00238205 54.49398945 0.00155371 56.16223145 -0.00076675 C58.48974539 -0.00329339 60.81716193 0.00054744 63.14466858 0.00613403 C63.84080765 0.0041098 64.53694672 0.00208557 65.25418091 0 C70.01282772 0.02126583 70.01282772 0.02126583 71.12709045 1.13552856 C71.12709045 5.75552856 71.12709045 10.37552856 71.12709045 15.13552856 C57.92709045 15.46552856 44.72709045 15.79552856 31.12709045 16.13552856 C35.58209045 17.12552856 35.58209045 17.12552856 40.12709045 18.13552856 C42.80543663 20.81387474 42.36358275 22.83642608 42.37593079 26.47665405 C42.36874023 27.3671344 42.36154968 28.25761475 42.35414124 29.17507935 C42.35443329 30.11171417 42.35472534 31.048349 42.35502625 32.0133667 C42.3536293 35.11928468 42.33805094 38.22496483 42.32240295 41.33084106 C42.31867412 43.480325 42.31582654 45.62981063 42.31382751 47.77929688 C42.30618085 53.44451568 42.28652349 59.1096324 42.26441956 64.77481079 C42.24398336 70.55258808 42.23483057 76.33038182 42.2247467 82.10818481 C42.20327857 93.45067766 42.16913019 104.79309463 42.12709045 116.13552856 C38.21569669 117.2204407 34.47449007 117.2835632 30.43959045 117.26052856 C29.75058655 117.26439575 29.06158264 117.26826294 28.35169983 117.27224731 C23.2537838 117.26222191 23.2537838 117.26222191 22.12709045 116.13552856 C22.03174088 112.99992971 22.00158167 109.88639244 22.01356506 106.7505188 C22.01341904 105.76526215 22.01327301 104.78000549 22.01312256 103.76489258 C22.01382213 100.49128049 22.0216166 97.21772452 22.0294342 93.94412231 C22.03129823 91.68110688 22.0327222 89.41809105 22.03372192 87.15507507 C22.03754836 81.18573908 22.0473797 75.21642725 22.0584259 69.24710083 C22.06863734 63.16108527 22.07321897 57.07506583 22.07826233 50.98904419 C22.08900186 39.03785997 22.10659967 27.08670005 22.12709045 15.13552856 C12.88709045 15.13552856 3.64709045 15.13552856 -5.87290955 15.13552856 C-5.87290955 0.02624534 -5.87290955 0.02624534 0 0 Z " fill="#E9EAEC" transform="translate(291.87290954589844,130.86447143554688)"/>
<path d="M0 0 C5.94 0 11.88 0 18 0 C18 3.3 18 6.6 18 10 C20.64 10 23.28 10 26 10 C26.70173653 14.38585329 27.10834375 18.55790643 27 23 C22.53665816 24.72293135 18.89798769 25.22240791 14.125 25.125 C12.39636719 25.09792969 12.39636719 25.09792969 10.6328125 25.0703125 C9.76398438 25.04710937 8.89515625 25.02390625 8 25 C8.95712891 25.29003906 8.95712891 25.29003906 9.93359375 25.5859375 C10.75988281 25.84632813 11.58617187 26.10671875 12.4375 26.375 C13.67306641 26.75785156 13.67306641 26.75785156 14.93359375 27.1484375 C17 28 17 28 18 30 C18.15171042 31.36936247 18.24900165 32.74500282 18.31640625 34.12109375 C18.35805908 34.96534912 18.39971191 35.80960449 18.44262695 36.67944336 C18.48218506 37.58960205 18.52174316 38.49976074 18.5625 39.4375 C18.60785889 40.37021729 18.65321777 41.30293457 18.69995117 42.26391602 C18.90920987 46.98598798 19.02280205 51.68007979 18.921875 56.40625 C18.89758423 57.67770874 18.89758423 57.67770874 18.87280273 58.97485352 C18.83355963 60.57746551 18.77669696 62.17977504 18.69946289 63.78100586 C18.57039362 68.98565261 19.4191708 71.94704092 23 76 C25.27358543 77.24290024 25.27358543 77.24290024 27.6875 77.875 C31.74789798 79.47778868 31.74789798 79.47778868 32.875 81.8125 C33.54864104 86.25853084 32.76485465 89.84740083 31 94 C23.54508438 93.63419196 16.95068039 92.79080349 10 90 C10 89.34 10 88.68 10 88 C9.34 88 8.68 88 8 88 C0.98147673 81.70483428 -0.59835346 72.47375309 -1.15719604 63.46630859 C-1.36188569 57.61312319 -1.34060015 51.76270956 -1.28125 45.90698242 C-1.25023377 42.83564856 -1.2402727 39.76483426 -1.234375 36.69335938 C-1.18559755 24.42989628 -0.7400804 12.2411685 0 0 Z " fill="#EBECEE" transform="translate(476,154)"/>
<path d="M0 0 C1.58206057 0.00667536 3.16410534 0.0186375 4.74609375 0.03515625 C5.55240234 0.03966797 6.35871094 0.04417969 7.18945312 0.04882812 C9.18753131 0.06065107 11.18557158 0.07858711 13.18359375 0.09765625 C13.18359375 0.75765625 13.18359375 1.41765625 13.18359375 2.09765625 C13.80621094 1.77023438 14.42882812 1.4428125 15.0703125 1.10546875 C19.41382682 -0.30058733 23.46404065 -0.11521353 27.99609375 -0.02734375 C28.87974609 -0.01832031 29.76339844 -0.00929687 30.67382812 0 C32.84386734 0.02345988 35.01376622 0.0593276 37.18359375 0.09765625 C37.36419718 1.53325574 37.53882702 2.96960756 37.7109375 4.40625 C37.80882568 5.20603271 37.90671387 6.00581543 38.00756836 6.82983398 C38.2085011 9.41854997 37.9067555 11.60676576 37.18359375 14.09765625 C33.25071011 15.02853534 29.60705212 15.2137451 25.5703125 15.1953125 C24.32314453 15.19208984 23.07597656 15.18886719 21.79101562 15.18554688 C20.49744141 15.17716797 19.20386719 15.16878906 17.87109375 15.16015625 C15.90172852 15.15338867 15.90172852 15.15338867 13.89257812 15.14648438 C10.65620365 15.13471574 7.41992197 15.11827385 4.18359375 15.09765625 C5.9995647 16.9136272 8.93425634 17.21614322 11.37109375 17.890625 C13.18359375 19.09765625 13.18359375 19.09765625 13.78779602 21.81221008 C14.15604684 24.86899429 14.3167974 27.79508566 14.32885742 30.87182617 C14.33523727 31.98285202 14.34161713 33.09387787 14.34819031 34.23857117 C14.34930313 35.42312393 14.35041595 36.6076767 14.3515625 37.828125 C14.3548909 39.05549881 14.3582193 40.28287262 14.36164856 41.54743958 C14.36670131 44.13538234 14.3690574 46.7233316 14.36889648 49.3112793 C14.37109156 53.2811949 14.38928847 57.25083634 14.40820312 61.22070312 C14.4111356 63.73567613 14.41312137 66.25065046 14.4140625 68.765625 C14.42124802 69.95625046 14.42843353 71.14687592 14.43583679 72.37358093 C14.43276016 73.4751503 14.42968353 74.57671967 14.42651367 75.71166992 C14.42793869 76.68174484 14.42936371 77.65181976 14.43083191 78.65129089 C14.18359375 81.09765625 14.18359375 81.09765625 12.18359375 84.09765625 C9.41168273 84.34615201 6.88471987 84.42449034 4.12109375 84.34765625 C3.00250977 84.33992188 3.00250977 84.33992188 1.86132812 84.33203125 C-3.66230199 84.25176051 -3.66230199 84.25176051 -4.81640625 83.09765625 C-4.91678356 80.54714151 -4.95258112 78.02368446 -4.94580078 75.47265625 C-4.9475531 74.67432373 -4.94930542 73.87599121 -4.95111084 73.0534668 C-4.95552992 70.40150815 -4.95259117 67.74961563 -4.94921875 65.09765625 C-4.94989177 63.2630207 -4.95086178 61.42838524 -4.95211792 59.59375 C-4.95359497 55.74348097 -4.95144011 51.89323509 -4.94677734 48.04296875 C-4.94108005 43.09609128 -4.94435902 38.14926806 -4.95034981 33.20239258 C-4.95395523 29.4124307 -4.95281692 25.62248179 -4.95022202 21.83251953 C-4.94955269 20.0079752 -4.95038135 18.1834297 -4.95270157 16.35888672 C-4.95522779 13.81344464 -4.95138795 11.26809166 -4.94580078 8.72265625 C-4.94883713 7.58026489 -4.94883713 7.58026489 -4.95193481 6.41479492 C-4.92623052 0.12605503 -4.92623052 0.12605503 0 0 Z " fill="#F0F1F3" transform="translate(371.81640625,163.90234375)"/>
<path d="M0 0 C5.61 0 11.22 0 17 0 C17.8040721 3.2162884 18.13568524 5.45521622 18.125 8.6875 C18.12886719 9.86892578 18.12886719 9.86892578 18.1328125 11.07421875 C18 13 18 13 17 14 C15.31391034 14.07205511 13.62499341 14.08386068 11.9375 14.0625 C11.01839844 14.05347656 10.09929688 14.04445312 9.15234375 14.03515625 C8.44207031 14.02355469 7.73179687 14.01195312 7 14 C7 14.66 7 15.32 7 16 C7.62648438 16.08636719 8.25296875 16.17273438 8.8984375 16.26171875 C9.71570313 16.40222656 10.53296875 16.54273438 11.375 16.6875 C12.59316406 16.87892578 12.59316406 16.87892578 13.8359375 17.07421875 C16 18 16 18 17.11907959 20.18586731 C18.08217321 23.26250533 18.25381904 25.73162775 18.25878906 28.9519043 C18.26509338 30.12629562 18.27139771 31.30068695 18.27789307 32.51066589 C18.2738446 33.76913834 18.26979614 35.02761078 18.265625 36.32421875 C18.26753845 37.62196732 18.2694519 38.91971588 18.27142334 40.25679016 C18.27436445 42.99619332 18.27010764 45.73546562 18.26074219 48.47485352 C18.24931419 51.98896208 18.25593438 55.50276626 18.26788712 59.01686382 C18.27683804 62.36934012 18.27057899 65.7217338 18.265625 69.07421875 C18.26967346 70.33876389 18.27372192 71.60330902 18.27789307 72.90617371 C18.27158875 74.07110855 18.26528442 75.2360434 18.25878906 76.4362793 C18.25640228 77.97918892 18.25640228 77.97918892 18.25396729 79.55326843 C18 82 18 82 16 84 C13.45770841 84.17201285 11.03850004 84.23257617 8.5 84.1875 C7.81035156 84.18685547 7.12070312 84.18621094 6.41015625 84.18554688 C1.28111049 84.14055525 1.28111049 84.14055525 -1 83 C-1.0231363 72.47345762 -1.04092168 61.94692125 -1.05181217 51.42035866 C-1.05703817 46.53283416 -1.06413071 41.64532701 -1.07543945 36.7578125 C-1.08627835 32.04403894 -1.09227897 27.3302821 -1.09487724 22.61649704 C-1.09672968 20.8151053 -1.10034683 19.01371451 -1.10573006 17.21232986 C-1.11295376 14.69573209 -1.11399037 12.17920407 -1.11352539 9.66259766 C-1.11712067 8.91237839 -1.12071594 8.16215912 -1.12442017 7.38920593 C-1.11405216 2.22810432 -1.11405216 2.22810432 0 0 Z " fill="#E7E8EA" transform="translate(725,164)"/>
<path d="M0 0 C0.74886475 0.00523682 1.49772949 0.01047363 2.26928711 0.01586914 C3.07817383 0.0190918 3.88706055 0.02231445 4.72045898 0.02563477 C5.5705957 0.03401367 6.42073242 0.04239258 7.29663086 0.05102539 C8.15063477 0.05553711 9.00463867 0.06004883 9.88452148 0.06469727 C12.00108749 0.07652166 14.11761771 0.0944577 16.23413086 0.11352539 C16.23413086 4.73352539 16.23413086 9.35352539 16.23413086 14.11352539 C12.56831632 14.8466883 9.86713254 15.21732544 6.23413086 15.11352539 C6.8722168 15.39067383 7.51030273 15.66782227 8.16772461 15.95336914 C8.99401367 16.3155957 9.82030273 16.67782227 10.67163086 17.05102539 C11.4953418 17.41067383 12.31905273 17.77032227 13.16772461 18.14086914 C15.23413086 19.11352539 15.23413086 19.11352539 16.23413086 20.11352539 C16.33338859 22.07177237 16.362125 24.03362436 16.36352539 25.99438477 C16.36667755 27.25238892 16.36982971 28.51039307 16.37307739 29.80651855 C16.37128761 31.19010452 16.36923666 32.57369017 16.36694336 33.95727539 C16.36761645 35.36592628 16.36858651 36.77457705 16.36984253 38.18322754 C16.37131928 41.13900862 16.36916569 44.09475953 16.36450195 47.05053711 C16.35880466 50.84727123 16.36208379 54.64393467 16.36807442 58.4406662 C16.37168065 61.35048967 16.37054116 64.26029627 16.36794662 67.17012024 C16.36727753 68.5704194 16.36810518 69.97072006 16.37042618 71.37101746 C16.37295368 73.32490003 16.36842119 75.27878794 16.36352539 77.23266602 C16.3627298 78.34661743 16.3619342 79.46056885 16.3611145 80.60827637 C16.23413086 83.11352539 16.23413086 83.11352539 15.23413086 84.11352539 C12.76055848 84.26701676 10.33408566 84.34512424 7.85913086 84.36352539 C7.17334961 84.38415039 6.48756836 84.40477539 5.78100586 84.42602539 C0.80717479 84.46473225 0.80717479 84.46473225 -1.46478271 83.07229614 C-3.47204728 80.05038226 -3.16622341 76.95073103 -3.12231445 73.44506836 C-3.12435883 72.66595093 -3.1264032 71.8868335 -3.12850952 71.08410645 C-3.13151882 68.50773689 -3.11303895 65.93200641 -3.09399414 63.35571289 C-3.09093716 61.56877806 -3.08906057 59.78184085 -3.08831787 57.99490356 C-3.08371416 54.25065998 -3.06928366 50.50663139 -3.04711914 46.76245117 C-3.01879584 41.95238106 -3.00790371 37.1424801 -3.00343704 32.33233452 C-2.99928979 28.64358819 -2.98947881 24.95487638 -2.97756195 21.26614761 C-2.97184789 19.49184573 -2.96709297 17.71754051 -2.96329498 15.94323349 C-2.95645501 13.46982675 -2.94283461 10.99655679 -2.92700195 8.52319336 C-2.92588409 7.78344269 -2.92476624 7.04369202 -2.9236145 6.28152466 C-2.87166626 0.18461562 -2.87166626 0.18461562 0 0 Z " fill="#EAEBED" transform="translate(433.765869140625,163.886474609375)"/>
<path d="M0 0 C2.70860665 -0.05429278 5.41610901 -0.09381211 8.125 -0.125 C8.88554688 -0.14175781 9.64609375 -0.15851563 10.4296875 -0.17578125 C16.43426556 -0.22754485 20.89967524 0.5997835 26 4 C26.77774956 7.95356028 27.26601287 10.82954337 26.375 14.75 C26.25125 15.4925 26.1275 16.235 26 17 C26.495 17.61875 26.99 18.2375 27.5 18.875 C29 21 29 21 28.9375 24.5 C27.92938057 28.26364588 27.01552452 29.62413219 24 32 C21.49502996 33.25248502 19.79146726 33.11374406 16.9921875 33.09765625 C16.00605469 33.09443359 15.01992188 33.09121094 14.00390625 33.08789062 C12.97136719 33.07951172 11.93882812 33.07113281 10.875 33.0625 C9.31458984 33.05573242 9.31458984 33.05573242 7.72265625 33.04882812 C5.14838038 33.03701952 2.57421854 33.02055075 0 33 C-1.05322058 29.54957827 -1.12911555 26.37056649 -1.1328125 22.7734375 C-1.13410156 21.5771875 -1.13539063 20.3809375 -1.13671875 19.1484375 C-1.13285156 17.90320313 -1.12898437 16.65796875 -1.125 15.375 C-1.12886719 14.12203125 -1.13273438 12.8690625 -1.13671875 11.578125 C-1.13542969 10.38445312 -1.13414062 9.19078125 -1.1328125 7.9609375 C-1.13168457 6.86571777 -1.13055664 5.77049805 -1.12939453 4.64208984 C-1 2 -1 2 0 0 Z M4 4 C4 7.3 4 10.6 4 14 C6.4377963 14.05397335 8.87439685 14.09365616 11.3125 14.125 C12.34793945 14.15013672 12.34793945 14.15013672 13.40429688 14.17578125 C17.17135396 14.21217794 18.78431704 14.14378864 22 12 C22.5 9.5 22.5 9.5 22 7 C16.73493611 3.48995741 10.2044262 3.84091215 4 4 Z M4 18 C4 21.63 4 25.26 4 29 C6.39652528 29.08139142 8.79025436 29.14067009 11.1875 29.1875 C11.86103516 29.21263672 12.53457031 29.23777344 13.22851562 29.26367188 C17.70864748 29.32923478 20.39440999 28.66743649 24 26 C23.67 24.02 23.34 22.04 23 20 C16.65176798 17.69155199 10.70518586 17.80181717 4 18 Z " fill="#8A92A3" transform="translate(678,259)"/>
<path d="M0 0 C4.40998484 4.12237713 6.359352 8.09688631 7 14 C6.81968507 19.3192903 5.8830544 22.31607659 2 26 C-3.24209639 29.31962181 -8.35905423 31.60861963 -14.640625 30.55859375 C-20.37791398 29.21631357 -24.3743955 27.91210933 -28 23 C-30.54223634 18.64188055 -30.67434456 13.91428597 -30 9 C-28.17104006 3.68978108 -24.88922829 0.64833199 -20 -2 C-13.55535565 -4.57785774 -5.90459316 -3.35057214 0 0 Z M-20 3 C-20 3.66 -20 4.32 -20 5 C-20.61875 5.2475 -21.2375 5.495 -21.875 5.75 C-24.49443701 7.2908453 -25.13480643 8.08980346 -26 11 C-25.62995982 16.18056255 -25.05661354 20.14904781 -21.125 23.6875 C-16.90828888 26.29193922 -12.91155234 26.41623325 -8 26 C-3.96321152 24.54940866 -1.52588782 22.72309576 1 19.25 C2.25894401 15.15843198 2.37630541 12.07017149 1 8 C-1.85869796 4.34721928 -4.51816173 2.23250552 -9 1 C-13.07214972 0.58234362 -16.19139595 1.582845 -20 3 Z " fill="#9097A5" transform="translate(591,262)"/>
<path d="M0 0 C2.49959949 0.3645318 3.68002508 0.60219171 5.29272461 2.60717773 C5.65889893 3.29239502 6.02507324 3.9776123 6.40234375 4.68359375 C6.81564941 5.4420459 7.22895508 6.20049805 7.65478516 6.98193359 C8.07808105 7.79227051 8.50137695 8.60260742 8.9375 9.4375 C9.37626465 10.25557129 9.8150293 11.07364258 10.26708984 11.91650391 C11.52443194 14.2710439 12.7631513 16.63465118 14 19 C14.87205078 20.62228516 14.87205078 20.62228516 15.76171875 22.27734375 C19 28.44770774 19 28.44770774 19 33 C16.6875 32.8125 16.6875 32.8125 14 32 C11 27.96551724 11 27.96551724 11 25 C8.22813012 24.89212182 5.46044463 24.81276673 2.6875 24.75 C1.90181641 24.71648437 1.11613281 24.68296875 0.30664062 24.6484375 C-4.29248441 24.44080092 -4.29248441 24.44080092 -7.96875 26.875 C-8.3090625 27.57625 -8.649375 28.2775 -9 29 C-9.391875 29.7425 -9.78375 30.485 -10.1875 31.25 C-10.5896875 32.11625 -10.5896875 32.11625 -11 33 C-12.65 32.67 -14.3 32.34 -16 32 C-11.2735343 20.91291823 -6.23998612 10.32253024 0 0 Z M1 7 C0.15930585 8.60032137 -0.67231505 10.20541171 -1.5 11.8125 C-1.9640625 12.70582031 -2.428125 13.59914063 -2.90625 14.51953125 C-4.20173141 17.00568026 -4.20173141 17.00568026 -4 20 C-0.04 20 3.92 20 8 20 C7.1028125 17.89625 7.1028125 17.89625 6.1875 15.75 C5.85105469 14.96109375 5.51460937 14.1721875 5.16796875 13.359375 C3.99799192 10.99594355 2.64455443 9.05451499 1 7 Z " fill="#BBBEC4" transform="translate(797,259)"/>
<path d="M0 0 C3.01414884 1.56986919 4.53150655 2.60037581 5.625 5.8671875 C6.26210783 9.38455362 6.21842971 11.48266648 4.8125 14.8125 C2.3699447 17.76041157 0.4459691 19.78449499 -3.4375 20.36328125 C-4.283125 20.34652344 -5.12875 20.32976562 -6 20.3125 C-6.845625 20.30863281 -7.69125 20.30476563 -8.5625 20.30078125 C-11.18184242 19.97756111 -12.78732546 19.42583984 -15 18 C-17.8199641 13.77005384 -17.79231188 9.96779552 -17 5 C-12.17713644 -1.38703553 -7.33526618 -1.62147989 0 0 Z " fill="#E4E5E9" transform="translate(739,138)"/>
<path d="M0 0 C2.88738526 3.60923158 3.41924885 6.92781447 3 11.5 C1.25 15 1.25 15 -1 17.5 C-5.33622854 18.94540951 -9.46837187 19.0348333 -14 18.5 C-17.55680172 16.39495409 -18.69468936 15.41593192 -20 11.5 C-20.36694508 6.54624138 -20.22800966 3.39587373 -17 -0.5 C-11.74461201 -3.90054517 -5.3224774 -2.6612387 0 0 Z " fill="#EDEDEF" transform="translate(449,139.5)"/>
<path d="M0 0 C0.9375 2.1875 0.9375 2.1875 1 4 C-2.6878273 5.22927577 -3.78288048 4.25515789 -7.17578125 2.71875 C-10.61043583 1.36548139 -13.42506977 1.38458609 -16.859375 2.7265625 C-19.74073625 4.19105603 -21.72262481 5.55378774 -23.4375 8.3125 C-24.43624029 13.08425915 -24.88555308 16.5240782 -22.3125 20.8125 C-18.790898 24.14374514 -16.32574608 24.92897789 -11.5 25.1875 C-7.72420587 25.06910335 -7.72420587 25.06910335 -3 24 C-3 20.37 -3 16.74 -3 13 C-1.68 13 -0.36 13 1 13 C1.24900646 14.93505023 1.47356242 16.87325934 1.6875 18.8125 C1.81511719 19.89144531 1.94273437 20.97039062 2.07421875 22.08203125 C2 25 2 25 0.62890625 26.81640625 C-3.82316494 30.05136445 -8.47567139 31.4824176 -14.0546875 30.71875 C-18.13367222 29.79520629 -21.63849145 28.57056536 -25 26 C-26.3125 23.8125 -26.3125 23.8125 -27 22 C-27.66 22 -28.32 22 -29 22 C-30.65869861 15.96342472 -31.13422652 10.33483226 -28.0625 4.6875 C-21.54332563 -4.5127996 -9.2359929 -5.38766253 0 0 Z " fill="#B6BBC7" transform="translate(379,262)"/>
<path d="M0 0 C5.94 0 11.88 0 18 0 C18.33 0.66 18.66 1.32 19 2 C19.99 1.34 20.98 0.68 22 0 C23.9172821 -0.24050903 23.9172821 -0.24050903 26.10424805 -0.22705078 C26.92487228 -0.22689972 27.74549652 -0.22674866 28.59098816 -0.22659302 C29.9129998 -0.21110916 29.9129998 -0.21110916 31.26171875 -0.1953125 C32.62040825 -0.19106766 32.62040825 -0.19106766 34.00654602 -0.18673706 C36.90033158 -0.17553964 39.79380794 -0.15043589 42.6875 -0.125 C44.64908407 -0.11496963 46.610673 -0.10584388 48.57226562 -0.09765625 C53.3816296 -0.07560173 58.19076237 -0.04107489 63 0 C63.495 0.99 63.495 0.99 64 2 C64.99 2 65.98 2 67 2 C65.625 3.5 65.625 3.5 64 5 C63.34 5 62.68 5 62 5 C62 3.68 62 2.36 62 1 C56.50042961 1.09350296 51.00130113 1.1995897 45.50219727 1.31738281 C43.63117132 1.35568294 41.76007147 1.390534 39.88891602 1.421875 C37.20041481 1.46750324 34.51242277 1.52550088 31.82421875 1.5859375 C30.56782845 1.60326431 30.56782845 1.60326431 29.28605652 1.62094116 C25.37626963 1.72046457 23.3229047 1.7847302 20 4 C19.01 4 18.02 4 17 4 C17 3.01 17 2.02 17 1 C12.05 1 7.1 1 2 1 C2 27.73 2 54.46 2 82 C6.95 82 11.9 82 17 82 C17 79.36 17 76.72 17 74 C17.33 74 17.66 74 18 74 C18.33 76.97 18.66 79.94 19 83 C13.08684508 84.31403443 7.02866847 84.31877874 1 84 C-0.75439163 82.24560837 -0.11982963 79.94502544 -0.12442017 77.60829163 C-0.12082489 76.8357756 -0.11722961 76.06325958 -0.11352539 75.26733398 C-0.11367142 74.4576416 -0.11381744 73.64794922 -0.1139679 72.8137207 C-0.11326854 70.12448492 -0.1054751 67.43531751 -0.09765625 64.74609375 C-0.09579215 62.88664284 -0.09436821 61.02719144 -0.09336853 59.16773987 C-0.08954271 54.26370904 -0.07971188 49.35970764 -0.06866455 44.45568848 C-0.05845181 39.45548908 -0.05387121 34.45528494 -0.04882812 29.45507812 C-0.03808967 19.63670372 -0.02049235 9.8183589 0 0 Z " fill="#9EA5B4" transform="translate(872,164)"/>
<path d="M0 0 C3.3825 -0.061875 6.765 -0.12375 10.25 -0.1875 C11.30993164 -0.21481201 12.36986328 -0.24212402 13.46191406 -0.27026367 C14.72600098 -0.28150269 14.72600098 -0.28150269 16.015625 -0.29296875 C16.87446289 -0.3086792 17.73330078 -0.32438965 18.61816406 -0.34057617 C21.51978082 0.0743229 22.86619027 1.02669941 25 3 C25.97391155 5.63967284 26.15771176 8.19623545 26 11 C24.75 13 24.75 13 23 14 C22.01 14 21.02 14 20 14 C20 14.66 20 15.32 20 16 C14.06 16 8.12 16 2 16 C2 20.29 2 24.58 2 29 C3.98 29 5.96 29 8 29 C8 29.33 8 29.66 8 30 C5.36 30 2.72 30 0 30 C0 20.1 0 10.2 0 0 Z M3 3 C3 6.3 3 9.6 3 13 C5.4377963 13.05397335 7.87439685 13.09365616 10.3125 13.125 C11.34793945 13.15013672 11.34793945 13.15013672 12.40429688 13.17578125 C16.17135396 13.21217794 17.78431704 13.14378864 21 11 C21.5 8.5 21.5 8.5 21 6 C15.73493611 2.48995741 9.2044262 2.84091215 3 3 Z " fill="#A9AEB8" transform="translate(679,260)"/>
<path d="M0 0 C0.99 0.495 0.99 0.495 2 1 C2 27.4 2 53.8 2 81 C6.95 81 11.9 81 17 81 C17 60.21 17 39.42 17 18 C17.33 18 17.66 18 18 18 C18.15395604 25.75383388 18.30213621 33.50775478 18.4429636 41.26183701 C18.5085379 44.86244496 18.57609382 48.4629929 18.64819336 52.06347656 C18.71771272 55.53876585 18.78200722 59.01411628 18.84269524 62.48957062 C18.87845297 64.45940438 18.91960724 66.42913778 18.96083069 68.39886475 C18.98092697 69.59980774 19.00102325 70.80075073 19.02172852 72.03808594 C19.05170677 73.6236026 19.05170677 73.6236026 19.08229065 75.2411499 C19.00941247 77.68444063 18.71263508 79.67422637 18 82 C14.4154104 83.11520565 11.05109703 83.13337312 7.3125 83.125 C6.15363281 83.12757813 4.99476563 83.13015625 3.80078125 83.1328125 C1 83 1 83 0 82 C-0.09506052 79.44410112 -0.12556761 76.91532028 -0.11352539 74.35913086 C-0.11367142 73.55919205 -0.11381744 72.75925323 -0.1139679 71.93507385 C-0.11326855 69.27830335 -0.10547518 66.62160207 -0.09765625 63.96484375 C-0.09579215 62.12781309 -0.09436821 60.29078194 -0.09336853 58.45375061 C-0.08954275 53.60890338 -0.07971196 48.76408592 -0.06866455 43.91925049 C-0.05845172 38.97937422 -0.05387119 34.03949315 -0.04882812 29.09960938 C-0.03808974 19.39972647 -0.0210126 9.69986571 0 0 Z " fill="#9FA3AC" transform="translate(620,165)"/>
<path d="M0 0 C3.02244898 3.02244898 2.4733891 6.53915106 2.62109375 10.609375 C2.65883408 11.4930072 2.6965744 12.3766394 2.73545837 13.28704834 C3.15766476 24.27170511 3.10855497 35.25937215 3.0625 46.25 C3.05746677 48.37499893 3.05290713 50.49999903 3.04882812 52.625 C3.03798579 57.75002993 3.02082551 62.87500132 3 68 C-0.86963782 70.13499083 -3.74985177 70.23808459 -8.1875 70.1875 C-9.43917969 70.18105469 -10.69085937 70.17460937 -11.98046875 70.16796875 C-15 70 -15 70 -16 69 C-16.12363297 67.03712234 -16.1779544 65.06984842 -16.20532227 63.10327148 C-16.22526749 61.84203964 -16.24521271 60.5808078 -16.26576233 59.28135681 C-16.28274795 57.89460373 -16.29962671 56.50784934 -16.31640625 55.12109375 C-16.33696926 53.7100411 -16.35796555 52.29899471 -16.37937927 50.88795471 C-16.43466755 47.1676641 -16.48404686 43.44731727 -16.53222656 39.72692871 C-16.58239242 35.93313575 -16.63810408 32.13942477 -16.69335938 28.34570312 C-16.80102351 20.89720477 -16.90244997 13.44863841 -17 6 C-16.34 6 -15.68 6 -15 6 C-13.94053436 9.17839691 -13.87935704 11.41845348 -13.88647461 14.7565918 C-13.88658791 16.52808846 -13.88658791 16.52808846 -13.88670349 18.33537292 C-13.89186478 19.61044205 -13.89702606 20.88551117 -13.90234375 22.19921875 C-13.9037587 23.50454056 -13.90517365 24.80986237 -13.90663147 26.15473938 C-13.9104462 29.62189656 -13.92026756 33.08901174 -13.93133545 36.55615234 C-13.94157202 40.09537182 -13.9461339 43.6345981 -13.95117188 47.17382812 C-13.96189077 54.1159044 -13.97947913 61.05794585 -14 68 C-9.05 68 -4.1 68 1 68 C0.67 45.56 0.34 23.12 0 0 Z " fill="#9FA3AB" transform="translate(978,178)"/>
<path d="M0 0 C0.99 0.33 1.98 0.66 3 1 C4.01894076 6.84888043 4.11798453 12.50919169 4.0625 18.4375 C4.05798828 19.35982422 4.05347656 20.28214844 4.04882812 21.23242188 C4.03713959 23.48830968 4.01920769 25.74416368 4 28 C10.27 28.33 16.54 28.66 23 29 C22.67 30.32 22.34 31.64 22 33 C17.17818019 34.32575494 12.61167933 33.90062439 7.6875 33.5625 C6.85154297 33.51029297 6.01558594 33.45808594 5.15429688 33.40429688 C3.10249211 33.27532629 1.05118694 33.13844979 -1 33 C-2.05960821 26.9220873 -2.18341679 20.97406678 -2.1875 14.8125 C-2.19974609 13.82830078 -2.21199219 12.84410156 -2.22460938 11.83007812 C-2.22654297 10.88197266 -2.22847656 9.93386719 -2.23046875 8.95703125 C-2.23457764 8.10085205 -2.23868652 7.24467285 -2.24291992 6.36254883 C-1.98163737 3.82141189 -1.27821859 2.19200081 0 0 Z " fill="#A7ADBA" transform="translate(895,259)"/>
<path d="M0 0 C1.9375 0.3125 1.9375 0.3125 4 1 C5.0394775 4.1184325 5.11494838 6.27475586 5.09765625 9.54296875 C5.09443359 10.61611328 5.09121094 11.68925781 5.08789062 12.79492188 C5.07951172 13.91447266 5.07113281 15.03402344 5.0625 16.1875 C5.05798828 17.31865234 5.05347656 18.44980469 5.04882812 19.61523438 C5.03703511 22.41017876 5.01909957 25.20509599 5 28 C10.94 28.33 16.88 28.66 23 29 C23 30.32 23 31.64 23 33 C7.25512528 34.33257403 7.25512528 34.33257403 0 33 C-0.63899673 25.05818347 -1.10310823 17.15610339 -1.125 9.1875 C-1.12951172 8.50042969 -1.13402344 7.81335938 -1.13867188 7.10546875 C-1.12398184 2.24796368 -1.12398184 2.24796368 0 0 Z " fill="#BDC1CA" transform="translate(463,259)"/>
<path d="M0 0 C2.875 0.25 2.875 0.25 6 1 C8.22459548 4.17513534 8.25292089 7.02322267 8.25878906 10.82250977 C8.26509338 11.99374893 8.27139771 13.1649881 8.27789307 14.37171936 C8.2738446 15.63221603 8.26979614 16.89271271 8.265625 18.19140625 C8.26753845 19.48819809 8.2694519 20.78498993 8.27142334 22.12107849 C8.27436795 24.86226173 8.27009773 27.60331439 8.26074219 30.34448242 C8.24933661 33.8574005 8.25591807 37.37001333 8.26788712 40.88292027 C8.27685101 44.23577343 8.27057589 47.58854442 8.265625 50.94140625 C8.26967346 52.20392715 8.27372192 53.46644806 8.27789307 54.76722717 C8.27158875 55.93531418 8.26528442 57.10340118 8.25878906 58.30688477 C8.25640228 59.85098778 8.25640228 59.85098778 8.25396729 61.42628479 C8 64 8 64 6 67 C3.22808898 67.24849576 0.70112612 67.32683409 -2.0625 67.25 C-3.18108398 67.24226563 -3.18108398 67.24226563 -4.32226562 67.234375 C-9.84589574 67.15410426 -9.84589574 67.15410426 -11 66 C-11.08865208 63.1156618 -11.11521296 60.25537842 -11.09765625 57.37109375 C-11.0962413 56.50686295 -11.09482635 55.64263214 -11.09336853 54.75221252 C-11.08775239 51.98060708 -11.07519719 49.2090812 -11.0625 46.4375 C-11.05748708 44.5631522 -11.05292381 42.68880315 -11.04882812 40.81445312 C-11.03777772 36.20960456 -11.0205023 31.60481579 -11 27 C-10.67 27 -10.34 27 -10 27 C-8.72213795 34.80803895 -8.88841853 42.61362681 -8.9375 50.5 C-8.94252467 51.90885258 -8.94708587 53.31770689 -8.95117188 54.7265625 C-8.96289961 58.15106026 -8.98083322 61.57553579 -9 65 C-4.05 65 0.9 65 6 65 C5.67 44.54 5.34 24.08 5 3 C2.525 2.01 2.525 2.01 0 1 C0 0.67 0 0.34 0 0 Z " fill="#A8ABB1" transform="translate(378,181)"/>
<path d="M0 0 C2 1 2 1 3.1105957 3.66064453 C4.69321984 9.76946336 4.2657246 16.16720304 4.23046875 22.4296875 C4.22927519 23.82976234 4.22882416 25.229838 4.2290802 26.62991333 C4.22752296 29.54987672 4.21928686 32.46971619 4.20581055 35.38964844 C4.18872696 39.13913699 4.1849993 42.88849091 4.18575573 46.63801384 C4.18548457 49.52209771 4.18001357 52.40615194 4.17275429 55.29022598 C4.16956644 56.67377626 4.16759994 58.05732989 4.16686058 59.44088364 C4.16470362 61.3653865 4.15517608 63.28987692 4.14526367 65.21435547 C4.13954597 66.85813675 4.13954597 66.85813675 4.13371277 68.53512573 C4 71 4 71 3 72 C0.30345146 72.07319621 -2.36691458 72.09242537 -5.0625 72.0625 C-5.82111328 72.05798828 -6.57972656 72.05347656 -7.36132812 72.04882812 C-9.24091871 72.0370068 -11.12046899 72.01907078 -13 72 C-14.63420642 67.00087249 -15.22629293 62.88037906 -15.125 57.5625 C-15.10695313 56.32628906 -15.08890625 55.09007812 -15.0703125 53.81640625 C-15.04710937 52.88699219 -15.02390625 51.95757812 -15 51 C-14.01 50.505 -14.01 50.505 -13 50 C-13 56.6 -13 63.2 -13 70 C-8.05 70 -3.1 70 2 70 C1.8916612 61.90663886 1.77948548 53.81335827 1.66066074 45.72014523 C1.60562964 41.96165167 1.55224281 38.20315011 1.50268555 34.44458008 C1.45474788 30.8135248 1.4023972 27.1825569 1.34705925 23.55160713 C1.32676807 22.17024491 1.30803434 20.78885885 1.29092598 19.40745354 C1.26658628 17.46420557 1.23606255 15.52103811 1.20532227 13.57788086 C1.18977798 12.47423691 1.1742337 11.37059296 1.15821838 10.23350525 C0.98893934 6.77395361 0.53935731 3.41979257 0 0 Z " fill="#8F97A8" transform="translate(696,176)"/>
<path d="M0 0 C0.66 0 1.32 0 2 0 C3.31164842 2.62329684 3.13262846 4.63698625 3.125 7.5625 C3.12886719 9.04943359 3.12886719 9.04943359 3.1328125 10.56640625 C3 13 3 13 2 14 C0.43452952 14.09326716 -1.13512772 14.11745582 -2.70336914 14.11352539 C-3.70433121 14.11344986 -4.70529327 14.11337433 -5.73658752 14.11329651 C-6.8251152 14.10813522 -7.91364288 14.10297394 -9.03515625 14.09765625 C-10.14354355 14.0962413 -11.25193085 14.09482635 -12.39390564 14.09336853 C-15.95013069 14.08775033 -19.50629383 14.07519475 -23.0625 14.0625 C-25.46679597 14.05748734 -27.87109292 14.05292403 -30.27539062 14.04882812 C-36.18363706 14.0386239 -42.09174885 14.01905205 -48 14 C-48 25.22 -48 36.44 -48 48 C-48.33 48 -48.66 48 -49 48 C-49 36.12 -49 24.24 -49 12 C-32.5 12 -16 12 1 12 C0.505 6.06 0.505 6.06 0 0 Z " fill="#999FAB" transform="translate(577,185)"/>
<path d="M0 0 C1.32 0 2.64 0 4 0 C4.24900646 1.93505023 4.47356242 3.87325934 4.6875 5.8125 C4.81511719 6.89144531 4.94273437 7.97039062 5.07421875 9.08203125 C5 12 5 12 3.6796875 13.84375 C-1.01290294 17.0739983 -8.50592206 16.50755663 -14 16 C-17.5625 14.6875 -17.5625 14.6875 -20 13 C-20.33 12.01 -20.66 11.02 -21 10 C-17.87709365 10.48578543 -15.00419641 10.9986012 -12 12 C-7.69429169 12.15947068 -4.26639602 11.8532792 0 11 C0 7.37 0 3.74 0 0 Z " fill="#C0C3CA" transform="translate(376,275)"/>
<path d="M0 0 C0.66 0 1.32 0 2 0 C4.00770278 7.4785192 4.26293244 14.40905054 4.1953125 22.12890625 C4.1924826 23.35915024 4.18965271 24.58939423 4.18673706 25.85691833 C4.17560547 29.7588808 4.15051358 33.66060774 4.125 37.5625 C4.11382534 40.21939768 4.1058369 42.87629315 4.09765625 45.53320312 C4.07568912 52.02221481 4.04228177 58.51109057 4 65 C-0.02423468 65.86726609 -3.68819971 66.1041596 -7.8125 66.0625 C-8.97394531 66.05347656 -10.13539063 66.04445313 -11.33203125 66.03515625 C-12.65267578 66.01775391 -12.65267578 66.01775391 -14 66 C-14.66 64.68 -15.32 63.36 -16 62 C-15.34 62 -14.68 62 -14 62 C-14 62.66 -14 63.32 -14 64 C-8.72 64 -3.44 64 2 64 C1.89193863 56.09831654 1.7798516 48.19672173 1.66066074 40.29519939 C1.60547799 36.62627332 1.55206546 32.95733921 1.50268555 29.28833008 C1.45497338 25.74806108 1.40262815 22.20788823 1.34705925 18.66773415 C1.31673705 16.65863701 1.29122315 14.64946919 1.26576233 12.64030457 C1.24581711 11.41926529 1.22587189 10.19822601 1.20532227 8.94018555 C1.18200584 7.32469063 1.18200584 7.32469063 1.15821838 5.67655945 C1.11021253 2.8978121 1.11021253 2.8978121 0 0 Z " fill="#687591" transform="translate(845,182)"/>
<path d="M0 0 C0.66 0.66 1.32 1.32 2 2 C1.41992188 2.03738281 0.83984375 2.07476562 0.2421875 2.11328125 C-5.75858588 2.61829683 -10.5796749 3.5796749 -15 8 C-15.99757977 11.63269616 -16.10770918 15.06013786 -16.0625 18.8125 C-16.05347656 19.78832031 -16.04445313 20.76414062 -16.03515625 21.76953125 C-16.02355469 22.50558594 -16.01195312 23.24164063 -16 24 C-19 23 -19 23 -21 20 C-21.7522251 15.48664939 -21.4949317 11.27720157 -19.375 7.1875 C-14.07532225 0.0747746 -8.56552571 -1.20365231 0 0 Z " fill="#D5D6D7" transform="translate(582,260)"/>
<path d="M0 0 C2 2 2 2 2.24050903 4.3664856 C2.2338472 5.85207474 2.2338472 5.85207474 2.22705078 7.36767578 C2.22689972 8.48868683 2.22674866 9.60969788 2.22659302 10.76467896 C2.21627045 11.97928802 2.20594788 13.19389709 2.1953125 14.4453125 C2.1924826 15.68546112 2.18965271 16.92560974 2.18673706 18.20333862 C2.17742174 21.50124633 2.1594489 24.79895972 2.1373291 28.09680176 C2.11687474 31.4616457 2.10773623 34.82651807 2.09765625 38.19140625 C2.07556519 44.79434723 2.04206483 51.39715771 2 58 C-2.02423468 58.86726609 -5.68819971 59.1041596 -9.8125 59.0625 C-10.97394531 59.05347656 -12.13539063 59.04445312 -13.33203125 59.03515625 C-14.21246094 59.02355469 -15.09289062 59.01195312 -16 59 C-16.66 57.68 -17.32 56.36 -18 55 C-16.515 54.505 -16.515 54.505 -15 54 C-15 54.99 -15 55.98 -15 57 C-10.05 57 -5.1 57 0 57 C0 38.19 0 19.38 0 0 Z " fill="#B9BBBE" transform="translate(595,189)"/>
<path d="M0 0 C0.33 0.66 0.66 1.32 1 2 C3.02463255 2.65213292 3.02463255 2.65213292 5 3 C4.67 3.33 4.34 3.66 4 4 C10.35368197 4.07597749 16.70724709 4.12856897 23.0612793 4.16479492 C25.22343321 4.17989444 27.38555643 4.20037571 29.54760742 4.22631836 C32.652909 4.26265017 35.75780614 4.27971462 38.86328125 4.29296875 C40.31653557 4.31619453 40.31653557 4.31619453 41.79914856 4.33988953 C42.6998558 4.34011612 43.60056305 4.34034271 44.52856445 4.34057617 C45.71770195 4.35056892 45.71770195 4.35056892 46.93086243 4.36076355 C49.49182518 3.91424804 50.37256778 2.97168147 52 1 C51.34 2.65 50.68 4.3 50 6 C34.16 6 18.32 6 2 6 C2.33 6.99 2.66 7.98 3 9 C1.35 8.67 -0.3 8.34 -2 8 C-1.125 2.25 -1.125 2.25 0 0 Z " fill="#0E38B0" transform="translate(10,188)"/>
<path d="M0 0 C3 3.75 3 3.75 3 6 C6.20010388 7.8133922 9.13283843 8.52213974 12.75 9.125 C14.22726562 9.37636719 14.22726562 9.37636719 15.734375 9.6328125 C16.85585938 9.81457031 16.85585938 9.81457031 18 10 C18 10.33 18 10.66 18 11 C15.36 11.33 12.72 11.66 10 12 C13.3 12.33 16.6 12.66 20 13 C20 13.33 20 13.66 20 14 C14.0007888 15.78354928 8.65955683 14.2483171 3 12 C0.01364387 9.67064222 -1.56384298 8.24136999 -2.8125 4.6875 C-2.874375 4.130625 -2.93625 3.57375 -3 3 C-1.68 3.99 -0.36 4.98 1 6 C0.67 4.02 0.34 2.04 0 0 Z " fill="#6D7A95" transform="translate(565,278)"/>
<path d="M0 0 C0.66 0.66 1.32 1.32 2 2 C1.979375 3.093125 1.95875 4.18625 1.9375 5.3125 C2.00447967 9.26430029 2.71678844 10.8605841 5 14 C4.01 14 3.02 14 2 14 C4.29038667 17.43558 5.12934783 17.87884558 9 19 C12.58430945 19.24082874 12.58430945 19.24082874 16.3125 19.125 C17.56675781 19.10695313 18.82101562 19.08890625 20.11328125 19.0703125 C21.06589844 19.04710937 22.01851563 19.02390625 23 19 C20.13564935 21.86435065 18.00662926 21.74150779 14 22 C9.19251434 21.34443377 4.89008553 19.97477129 1 17 C-0.3125 14.8125 -0.3125 14.8125 -1 13 C-1.66 13 -2.32 13 -3 13 C-4.17571451 9.32589215 -4.07366746 5.83070817 -4 2 C-3.34 2 -2.68 2 -2 2 C-2 4.97 -2 7.94 -2 11 C-1.34 11 -0.68 11 0 11 C0 7.37 0 3.74 0 0 Z " fill="#6C7893" transform="translate(353,271)"/>
<path d="M0 0 C0.33 0 0.66 0 1 0 C1 3.63 1 7.26 1 11 C3.37587624 10.88513575 5.75015171 10.75841844 8.125 10.625 C8.79015625 10.5940625 9.4553125 10.563125 10.140625 10.53125 C14.39231832 10.28115039 18.06818302 9.65799511 22 8 C23.42055068 5.99863756 23.42055068 5.99863756 24 4 C24 5.65 24 7.3 24 9 C22.68 9.33 21.36 9.66 20 10 C20 10.66 20 11.32 20 12 C14.06 12 8.12 12 2 12 C2 16.29 2 20.58 2 25 C3.98 25 5.96 25 8 25 C8 25.33 8 25.66 8 26 C5.36 26 2.72 26 0 26 C0 17.42 0 8.84 0 0 Z " fill="#F5F5F5" transform="translate(679,264)"/>
<path d="M0 0 C0.33 0 0.66 0 1 0 C2.19576049 7.79756417 2.33603281 15.62818524 2.5625 23.5 C2.60577737 24.90886473 2.64939431 26.31771907 2.69335938 27.7265625 C2.79890571 31.1509546 2.90101798 34.57541292 3 38 C4.32 38.66 5.64 39.32 7 40 C5.00045254 40.04254356 2.99958364 40.04080783 1 40 C0 39 0 39 -0.11352539 35.30639648 C-0.11336624 33.66128708 -0.10766988 32.01617269 -0.09765625 30.37109375 C-0.0962413 29.50686295 -0.09482635 28.64263214 -0.09336853 27.75221252 C-0.08775239 24.98060708 -0.07519719 22.2090812 -0.0625 19.4375 C-0.05748708 17.5631522 -0.05292381 15.68880315 -0.04882812 13.81445312 C-0.03777772 9.20960456 -0.0205023 4.60481579 0 0 Z " fill="#868C9B" transform="translate(367,208)"/>
<path d="M0 0 C1.56041016 -0.03867187 1.56041016 -0.03867187 3.15234375 -0.078125 C6.37971419 0.28576643 7.69963641 1.08641406 10.0625 3.25 C9.7325 4.57 9.4025 5.89 9.0625 7.25 C8.52882813 7.04503906 7.99515625 6.84007812 7.4453125 6.62890625 C1.64854428 4.532843 -3.79482066 3.62189499 -9.9375 3.25 C-8.00237586 -0.62024828 -3.85945058 0.05724772 0 0 Z " fill="#D5D6D9" transform="translate(369.9375,259.75)"/>
<path d="M0 0 C0.99 0.33 1.98 0.66 3 1 C1.515 2.485 1.515 2.485 0 4 C0.99 4 1.98 4 3 4 C3.66 6.64 4.32 9.28 5 12 C3.68 11.01 2.36 10.02 1 9 C-0.32 11.64 -1.64 14.28 -3 17 C-3.33 15.68 -3.66 14.36 -4 13 C-4.66 13 -5.32 13 -6 13 C-4.58707905 8.1725201 -2.57025846 4.2837641 0 0 Z " fill="#989EAB" transform="translate(797,259)"/>
<path d="M0 0 C0.33 0 0.66 0 1 0 C1.66509667 13.34261759 2.16139646 26.63995943 2 40 C-1 39 -1 39 -3 36 C-2.67 35.01 -2.34 34.02 -2 33 C-2 33.66 -2 34.32 -2 35 C-1.34 35 -0.68 35 0 35 C0 23.45 0 11.9 0 0 Z " fill="#315197" transform="translate(236,215)"/>
<path d="M0 0 C-3.6657451 2.34973213 -7.18736298 2.27481253 -11.3984375 2.23046875 C-12.11101715 2.23001053 -12.8235968 2.22955231 -13.55776978 2.2290802 C-15.06229318 2.2260656 -16.56681368 2.21820299 -18.07128906 2.20581055 C-20.36014014 2.18761811 -22.64858431 2.18530065 -24.9375 2.18554688 C-26.40364929 2.18062839 -27.86979587 2.17479863 -29.3359375 2.16796875 C-30.01425629 2.16685593 -30.69257507 2.1657431 -31.39144897 2.16459656 C-35.35773163 2.12550575 -39.10699597 1.75590481 -43 1 C-43 0.67 -43 0.34 -43 0 C-37.51922847 -0.16780202 -32.03831026 -0.32834201 -26.55712891 -0.48217773 C-24.69281298 -0.53552266 -22.82855257 -0.59084602 -20.96435547 -0.64819336 C-18.28365039 -0.73031405 -15.60282573 -0.8053005 -12.921875 -0.87890625 C-12.08944275 -0.90594131 -11.2570105 -0.93297638 -10.39935303 -0.96083069 C-9.22859222 -0.99097511 -9.22859222 -0.99097511 -8.03417969 -1.02172852 C-7.00825714 -1.05170677 -7.00825714 -1.05170677 -5.96160889 -1.08229065 C-3.85733339 -0.99401505 -2.0208995 -0.57653538 0 0 Z " fill="#A6A8AD" transform="translate(829,246)"/>
<path d="M0 0 C5.94 0 11.88 0 18 0 C19.32 2.31 20.64 4.62 22 7 C22.66 7.33 23.32 7.66 24 8 C23.67 6.02 23.34 4.04 23 2 C25.62386487 5.06117568 26 5.73173127 26 10 C23.6875 9.8125 23.6875 9.8125 21 9 C18 4.96551724 18 4.96551724 18 2 C15.22890693 1.94607603 12.45886182 1.90636545 9.6875 1.875 C8.90181641 1.85824219 8.11613281 1.84148437 7.30664062 1.82421875 C6.54931641 1.81777344 5.79199219 1.81132812 5.01171875 1.8046875 C4.31522217 1.79421387 3.61872559 1.78374023 2.90112305 1.77294922 C0.668827 1.89425405 0.668827 1.89425405 -2 4 C-1.34 2.68 -0.68 1.36 0 0 Z " fill="#435781" transform="translate(790,282)"/>
<path d="M0 0 C2.97 0.99 5.94 1.98 9 3 C9.93402724 8.41735797 10.20808081 11.80451575 8 17 C6.10353002 16.88506243 4.20781668 16.75760358 2.3125 16.625 C1.25675781 16.55539063 0.20101563 16.48578125 -0.88671875 16.4140625 C-3.90677269 16.01239911 -6.24078054 15.25930981 -9 14 C-5.25 12.875 -5.25 12.875 -3 14 C-1.29636178 14.22622081 0.41328701 14.40888473 2.125 14.5625 C3.73375 14.706875 5.3425 14.85125 7 15 C7 11.04 7 7.08 7 3 C4.69 2.67 2.38 2.34 0 2 C0 1.34 0 0.68 0 0 Z " fill="#9AA0AD" transform="translate(499,231)"/>
<path d="M0 0 C-1.24976756 3.65316671 -1.67098753 4.78065836 -5 7 C-8.13671875 7.1953125 -8.13671875 7.1953125 -11.6875 7.125 C-13.45673828 7.09792969 -13.45673828 7.09792969 -15.26171875 7.0703125 C-16.16535156 7.04710937 -17.06898438 7.02390625 -18 7 C-18.33 6.34 -18.66 5.68 -19 5 C-16.03 5 -13.06 5 -10 5 C-10 4.34 -10 3.68 -10 3 C-8.70990357 2.49596232 -7.41786211 1.99690074 -6.125 1.5 C-5.40570312 1.2215625 -4.68640625 0.943125 -3.9453125 0.65625 C-2 0 -2 0 0 0 Z " fill="#C0C5CF" transform="translate(593,284)"/>
<path d="M0 0 C0.33 0.66 0.66 1.32 1 2 C0.525625 2.86625 0.05125 3.7325 -0.4375 4.625 C-1.90392487 7.79247773 -2.17287426 8.83829985 -2.0625 12.125 C-2.00536829 15.66716599 -2.09091966 17.1363795 -4 20 C-5.65 19.67 -7.3 19.34 -9 19 C-7.69124677 16.01917332 -6.37737319 13.04063158 -5.0625 10.0625 C-4.68931641 9.21236328 -4.31613281 8.36222656 -3.93164062 7.48632812 C-3.57392578 6.67744141 -3.21621094 5.86855469 -2.84765625 5.03515625 C-2.51773682 4.2862915 -2.18781738 3.53742676 -1.84790039 2.76586914 C-1 1 -1 1 0 0 Z " fill="#8690A4" transform="translate(790,272)"/>
<path d="M0 0 C5.94 0 11.88 0 18 0 C18 4.62 18 9.24 18 14 C14.29691628 14.74061674 11.64969934 15 8 15 C7.01 15.495 7.01 15.495 6 16 C6 15.01 6 14.02 6 13 C9.3 12.67 12.6 12.34 16 12 C16.33 8.37 16.66 4.74 17 1 C11.06 1.33 5.12 1.66 -1 2 C-0.67 1.34 -0.34 0.68 0 0 Z " fill="#66738F" transform="translate(432,164)"/>
<path d="M0 0 C1.82421875 0.19140625 1.82421875 0.19140625 4 1 C5.51953125 3.21484375 5.51953125 3.21484375 6.8125 5.9375 C7.25207031 6.83339844 7.69164062 7.72929687 8.14453125 8.65234375 C8.42683594 9.42707031 8.70914063 10.20179688 9 11 C8.67 11.66 8.34 12.32 8 13 C7.34 12.01 6.68 11.02 6 10 C6.33 12.64 6.66 15.28 7 18 C3.10815152 13.57744491 2 8.80705928 2 3 C1.01 3 0.02 3 -1 3 C-0.67 2.01 -0.34 1.02 0 0 Z " fill="#BBBEC3" transform="translate(798,260)"/>
<path d="M0 0 C0.66 0 1.32 0 2 0 C2 4.29 2 8.58 2 13 C9.26 13.33 16.52 13.66 24 14 C24 14.33 24 14.66 24 15 C8.25512528 16.33257403 8.25512528 16.33257403 1 15 C0.67 10.05 0.34 5.1 0 0 Z " fill="#7C869D" transform="translate(462,277)"/>
<path d="M0 0 C0.66 0 1.32 0 2 0 C1.5020163 3.73487777 1.12508244 5.81237635 -1 9 C4.61 9 10.22 9 16 9 C16 9.33 16 9.66 16 10 C14.80761719 10.03738281 13.61523438 10.07476562 12.38671875 10.11328125 C10.820281 10.17894032 9.25387616 10.24538768 7.6875 10.3125 C6.90181641 10.33505859 6.11613281 10.35761719 5.30664062 10.38085938 C4.54931641 10.41630859 3.79199219 10.45175781 3.01171875 10.48828125 C1.96697388 10.52755737 1.96697388 10.52755737 0.90112305 10.56762695 C-1.49350359 11.11223768 -2.43272547 12.15829162 -4 14 C-4.56561146 8.34388537 -2.71391278 4.77357872 0 0 Z " fill="#ECECEC" transform="translate(791,272)"/>
<path d="M0 0 C1.32 0 2.64 0 4 0 C5.42857143 8.42857143 5.42857143 8.42857143 3 13 C2.01 12.67 1.02 12.34 0 12 C0 8.04 0 4.08 0 0 Z " fill="#B3B9C5" transform="translate(376,275)"/>
<path d="M0 0 C2.61940964 2.50552226 3.95696227 3.85347491 4.09765625 7.6015625 C4.08605469 8.59929687 4.07445312 9.59703125 4.0625 10.625 C4.05347656 11.62789063 4.04445313 12.63078125 4.03515625 13.6640625 C4.02355469 14.43492187 4.01195312 15.20578125 4 16 C1 15 1 15 -1 12 C-1.23046875 9.84375 -1.23046875 9.84375 -1.1875 7.5 C-1.17783203 6.33984375 -1.17783203 6.33984375 -1.16796875 5.15625 C-1 3 -1 3 0 0 Z " fill="#9FA5B3" transform="translate(562,268)"/>
<path d="M0 0 C7.75 1.875 7.75 1.875 10 3 C9.67 2.01 9.34 1.02 9 0 C9.99 0.33 10.98 0.66 12 1 C12.9765625 7.0546875 12.9765625 7.0546875 13 9 C12.34 9.66 11.68 10.32 11 11 C10.67 10.01 10.34 9.02 10 8 C9.67 8.66 9.34 9.32 9 10 C8.34 9.67 7.68 9.34 7 9 C7 7.35 7 5.7 7 4 C4.69 3.34 2.38 2.68 0 2 C0 1.34 0 0.68 0 0 Z " fill="#7F8AA1" transform="translate(692,262)"/>
<path d="M0 0 C6.93 0 13.86 0 21 0 C21.66 1.65 22.32 3.3 23 5 C20.03 4.34 17.06 3.68 14 3 C14 2.67 14 2.34 14 2 C7.07 1.505 7.07 1.505 0 1 C0 0.67 0 0.34 0 0 Z " fill="#CECFD2" transform="translate(679,260)"/>
<path d="M0 0 C-5.625 3.875 -5.625 3.875 -9 5 C-9 8.3 -9 11.6 -9 15 C-8.34 15 -7.68 15 -7 15 C-7.33 15.99 -7.66 16.98 -8 18 C-10.98308231 13.89826183 -11.5397141 11.03733161 -11 6 C-9.59761203 2.67855481 -8.6648007 1.36564038 -5.5 -0.375 C-3 -1 -3 -1 0 0 Z " fill="#A6ABB4" transform="translate(440,138)"/>
<path d="M0 0 C1.32 0.33 2.64 0.66 4 1 C4.6875 4.3125 4.6875 4.3125 5 8 C3.6875 9.9375 3.6875 9.9375 2 11 C1.34 11 0.68 11 0 11 C0 7.37 0 3.74 0 0 Z " fill="#BEC2CC" transform="translate(702,277)"/>
<path d="M0 0 C0.66 0 1.32 0 2 0 C2 0.99 2 1.98 2 3 C7.61 3 13.22 3 19 3 C18.67 3.66 18.34 4.32 18 5 C12.39 5 6.78 5 1 5 C0.34 3.68 -0.32 2.36 -1 1 C-0.67 0.67 -0.34 0.34 0 0 Z " fill="#9A9EA7" transform="translate(578,243)"/>
<path d="M0 0 C0.99 0 1.98 0 3 0 C5.21538462 6.27692308 5.21538462 6.27692308 4.125 9.9375 C3.568125 10.9584375 3.568125 10.9584375 3 12 C2.34 12 1.68 12 1 12 C0.67 8.04 0.34 4.08 0 0 Z " fill="#DDDEDF" transform="translate(593,268)"/>
<path d="M0 0 C3.63 0.66 7.26 1.32 11 2 C11 2.33 11 2.66 11 3 C8.03 2.67 5.06 2.34 2 2 C2.37253906 2.69867188 2.74507812 3.39734375 3.12890625 4.1171875 C3.60199219 5.02726562 4.07507813 5.93734375 4.5625 6.875 C5.03816406 7.77992187 5.51382813 8.68484375 6.00390625 9.6171875 C6.33261719 10.40351562 6.66132813 11.18984375 7 12 C6.67 12.66 6.34 13.32 6 14 C4.80285445 12.04754815 3.61751926 10.08785003 2.4375 8.125 C1.77621094 7.03445312 1.11492187 5.94390625 0.43359375 4.8203125 C-0.03949219 3.88960937 -0.51257813 2.95890625 -1 2 C-0.67 1.34 -0.34 0.68 0 0 Z " fill="#375493" transform="translate(128,58)"/>
<path d="M0 0 C0.99 1.32 1.98 2.64 3 4 C2.01 4.495 2.01 4.495 1 5 C1 7.31 1 9.62 1 12 C-1 8.25 -1 8.25 -1 6 C-3.31 5.67 -5.62 5.34 -8 5 C-8 4.67 -8 4.34 -8 4 C-6.35 4 -4.7 4 -3 4 C-3 3.01 -3 2.02 -3 1 C-2.01 0.67 -1.02 0.34 0 0 Z " fill="#6E7C99" transform="translate(702,273)"/>
<path d="M0 0 C0.33 0.66 0.66 1.32 1 2 C3.02463255 2.65213292 3.02463255 2.65213292 5 3 C3.25 7.875 3.25 7.875 1 9 C0.01 8.67 -0.98 8.34 -2 8 C-1.125 2.25 -1.125 2.25 0 0 Z " fill="#2F519F" transform="translate(10,188)"/>
<path d="M0 0 C0 0.33 0 0.66 0 1 C-3.63 1.66 -7.26 2.32 -11 3 C-11 3.66 -11 4.32 -11 5 C-12.65 5 -14.3 5 -16 5 C-15.67 4.01 -15.34 3.02 -15 2 C-10.06208162 -0.34551123 -5.33555495 -0.2134222 0 0 Z " fill="#828CA1" transform="translate(372,259)"/>
<path d="M0 0 C1.32 0.33 2.64 0.66 4 1 C4 1.66 4 2.32 4 3 C2.576875 3.37125 2.576875 3.37125 1.125 3.75 C-2.08693191 4.6857077 -2.08693191 4.6857077 -3.375 7.125 C-3.58125 7.74375 -3.7875 8.3625 -4 9 C-4.66 8.67 -5.32 8.34 -6 8 C-4.02 5.36 -2.04 2.72 0 0 Z " fill="#1D44B1" transform="translate(136,92)"/>
<path d="M0 0 C0.33 0 0.66 0 1 0 C1.66 3.3 2.32 6.6 3 10 C2.01 9.67 1.02 9.34 0 9 C-1.36623674 6.26752652 -1.128426 4.01801098 -1 1 C-0.67 0.67 -0.34 0.34 0 0 Z " fill="#EBEBEB" transform="translate(563,274)"/>
<path d="M0 0 C0.66 0 1.32 0 2 0 C2 0.66 2 1.32 2 2 C2.66 2 3.32 2 4 2 C3.34 3.98 2.68 5.96 2 8 C1.67 6.68 1.34 5.36 1 4 C0.34 4 -0.32 4 -1 4 C-0.67 2.68 -0.34 1.36 0 0 Z " fill="#8D97AD" transform="translate(792,268)"/>
<path d="M0 0 C3.73487777 0.4979837 5.81237635 0.87491756 9 3 C6.69 3.33 4.38 3.66 2 4 C1.34 2.68 0.68 1.36 0 0 Z " fill="#B6BBC6" transform="translate(355,285)"/>
<path d="M0 0 C0.99 0 1.98 0 3 0 C2.67 1.65 2.34 3.3 2 5 C1.34 4.67 0.68 4.34 0 4 C-0.33 4.99 -0.66 5.98 -1 7 C-1.66 7 -2.32 7 -3 7 C-1.125 1.125 -1.125 1.125 0 0 Z " fill="#AEB4BF" transform="translate(352,266)"/>
<path d="M0 0 C2.475 0.495 2.475 0.495 5 1 C5.33 1.99 5.66 2.98 6 4 C3.03 3.505 3.03 3.505 0 3 C0 2.01 0 1.02 0 0 Z " fill="#D6D6D7" transform="translate(567,285)"/>
<path d="M0 0 C0.66 0 1.32 0 2 0 C2.69965443 1.26418246 3.38434763 2.53665402 4.0625 3.8125 C4.63677734 4.87404297 4.63677734 4.87404297 5.22265625 5.95703125 C6 8 6 8 5 11 C2.69880494 7.44360764 1.22527029 4.05281712 0 0 Z " fill="#34549B" transform="translate(139,79)"/>
<path d="M0 0 C2.62386487 3.06117568 3 3.73173127 3 8 C1.68 8 0.36 8 -1 8 C-1 7.34 -1 6.68 -1 6 C-0.34 6 0.32 6 1 6 C0.67 4.02 0.34 2.04 0 0 Z " fill="#7F8799" transform="translate(813,284)"/>
<path d="M0 0 C0.66 0 1.32 0 2 0 C1.75 2.375 1.75 2.375 1 5 C-1.0625 6.3125 -1.0625 6.3125 -3 7 C-3 5.35 -3 3.7 -3 2 C-2.67 2.66 -2.34 3.32 -2 4 C-1.34 4 -0.68 4 0 4 C0 2.68 0 1.36 0 0 Z " fill="#ABB0BA" transform="translate(596,276)"/>
<path d="M0 0 C2.01822917 0.29296875 4.03645833 0.5859375 6.0546875 0.87890625 C8.08140667 1.1684297 8.08140667 1.1684297 10 0 C9.67 1.32 9.34 2.64 9 4 C6.03 3.01 3.06 2.02 0 1 C0 0.67 0 0.34 0 0 Z " fill="#616E8B" transform="translate(370,263)"/>
<path d="" fill="#5B616E" transform="translate(0,0)"/>
<path d="" fill="#5B616E" transform="translate(0,0)"/>
<path d="" fill="#5B616E" transform="translate(0,0)"/>
</svg>
